<svg xmlns="http://www.w3.org/2000/svg" width="37.266" height="45.231" viewBox="0 0 37.266 45.231"><g fill="#fffed7" transform="translate(-77.785 -754.304)"><path d="M42.894,40.6a7.932,7.932,0,0,1-6.616-3.839l-.075-.116-.3.007a3.667,3.667,0,0,1-3.662-2.689c-1.169-4.526-.715-9.1,1.213-12.237l.287-.466-.538.1a1.928,1.928,0,0,0-.674.233,1.011,1.011,0,0,1-.583.191h0a1.053,1.053,0,0,1-.87-.488.988.988,0,0,1-.062-.97c1.519-3.335,7.2-6.488,11.681-6.488h.117a11.609,11.609,0,0,1,8.647,4.357C53.5,20.755,55.49,25.578,53.4,33.953a3.574,3.574,0,0,1-3.581,2.695l-.235,0-.074.114A7.93,7.93,0,0,1,42.894,40.6ZM46.134,24.6A17.635,17.635,0,0,1,36.916,29.4l-.184.023L36.7,29.6a8.437,8.437,0,0,0-.093,1.278c0,4.228,2.818,7.669,6.283,7.669s6.283-3.44,6.283-7.669a8.286,8.286,0,0,0-2.7-6.3l-.179-.151Zm-3.444-8.727a13.693,13.693,0,0,0-7.757,2.9l-.508.4.646.037c.419.023.753.061.934.082a1.026,1.026,0,0,1,.9.715,1,1,0,0,1-.284,1.063c-3.373,3.1-3.472,8.848-2.137,12.873l.47-.14a11.391,11.391,0,0,1-.388-2.934,11.526,11.526,0,0,1,.335-2.74,1.041,1.041,0,0,1,1-.778,1.011,1.011,0,0,1,.176.016,1.583,1.583,0,0,0,.273.021c1.643,0,6.93-2.082,8.874-4.929a1.022,1.022,0,0,1,1.357-.313,9.914,9.914,0,0,1,4.647,8.714,10.987,10.987,0,0,1-.167,1.954l.48.1c1.331-5.753.752-10.411-1.675-13.471A9.338,9.338,0,0,0,43,15.876l-.162,0Z" transform="translate(53.812 740.474)"/><path d="M20.335,76.631a.754.754,0,0,1-.753-.753V68.2a7.574,7.574,0,0,1,4.685-7.043,39.741,39.741,0,0,1,6.813-1.967.76.76,0,0,1,.768.319,8.292,8.292,0,0,0,6.123,3.446q.184.007.364.007a7.14,7.14,0,0,0,6.139-3.31,1.03,1.03,0,0,1,.849-.456,1.018,1.018,0,0,1,.2.02,37.494,37.494,0,0,1,6.644,1.931A7.609,7.609,0,0,1,56.848,68.2v7.675a.754.754,0,0,1-.753.753ZM30.524,61.394a35.248,35.248,0,0,0-5.492,1.667A5.514,5.514,0,0,0,21.638,68.2v6.372H54.792l.009-.245V68.2a5.517,5.517,0,0,0-3.385-5.141,35.288,35.288,0,0,0-5.492-1.667l-.147-.031-.095.116a10.033,10.033,0,0,1-7.7,3.554,9.086,9.086,0,0,1-7.22-3.554l-.094-.116Z" transform="translate(58.203 722.904)"/></g></svg>
