<svg xmlns="http://www.w3.org/2000/svg" width="10.858" height="30" viewBox="0 0 10.858 30"><defs><style>.a{fill:#fff;}</style></defs><path class="a" d="M37.515,32.479a5.429,5.429,0,1,0,5.43,5.429A5.435,5.435,0,0,0,37.515,32.479Zm0,8.638a3.208,3.208,0,1,1,3.209-3.209A3.212,3.212,0,0,1,37.515,41.117Z" transform="translate(-32.086 -32.479)"/><path class="a" d="M38.491,66.939A4.862,4.862,0,0,0,33.635,71.8v7.531a4.856,4.856,0,1,0,9.712,0V71.8A4.862,4.862,0,0,0,38.491,66.939Zm2.635,12.387a2.635,2.635,0,1,1-5.27,0V71.8a2.635,2.635,0,1,1,5.27,0Z" transform="translate(-33.062 -54.182)"/></svg>