<svg xmlns="http://www.w3.org/2000/svg" width="53.717" height="42.612" viewBox="0 0 53.717 42.612"><g transform="translate(-73.791 -155.388)"><path d="M62.048,36.449H60.475a.2.2,0,0,1-.2-.2V24.04a.733.733,0,0,0-.734-.734H58.6a.733.733,0,0,0-.734.734V26.63a.2.2,0,0,1-.152.2L23.686,35.843a.189.189,0,0,1-.052.006H19.542a5,5,0,0,0-5,5.005V48.37a5,5,0,0,0,5,5.005h4.031a.189.189,0,0,1,.052.006l1.2.314a.2.2,0,0,1,.152.2v4.8A5.005,5.005,0,0,0,29.986,63.7h10.6a4.8,4.8,0,0,0,4.783-4.32.2.2,0,0,1,.251-.179l12.04,3.2a.2.2,0,0,1,.151.2v2.6a.727.727,0,0,0,.727.726h.95a.724.724,0,0,0,.724-.723V52.978a.2.2,0,0,1,.2-.2h1.634a6.205,6.205,0,0,0,6.2-6.206V42.655A6.205,6.205,0,0,0,62.048,36.449ZM22.58,50.771a.2.2,0,0,1-.2.2H19.542a2.6,2.6,0,0,1-2.6-2.6V40.854a2.6,2.6,0,0,1,2.6-2.6h2.834a.2.2,0,0,1,.2.2ZM40.382,61.3h-10.4a2.6,2.6,0,0,1-2.6-2.6V54.659a.2.2,0,0,1,.256-.2l15.2,4.033a.2.2,0,0,1,.151.2A2.6,2.6,0,0,1,40.382,61.3Zm17.489-1.585a.2.2,0,0,1-.256.2L25.132,51.254a.2.2,0,0,1-.152-.2V38.107a.2.2,0,0,1,.152-.2l32.483-8.595a.2.2,0,0,1,.256.2Zm8.042-13.142a3.8,3.8,0,0,1-3.8,3.8H60.475a.2.2,0,0,1-.2-.2V39.054a.2.2,0,0,1,.2-.2h1.633a3.8,3.8,0,0,1,3.8,3.8Z" transform="translate(59.254 132.082)"/></g></svg>