<svg xmlns="http://www.w3.org/2000/svg" width="58.635" height="54.611" viewBox="0 0 58.635 54.611"><g transform="translate(-71 -269.314)"><path d="M11.5,47.316l3.345-6.947-.06-.1a3.934,3.934,0,0,1-.524-1.659A4.057,4.057,0,0,1,17.792,34.4l7.216-.94,1.9-4.728a8.083,8.083,0,0,1,.47-.963l.174-.3-.349-.03A7.015,7.015,0,0,1,20.82,19.84,7.056,7.056,0,0,1,27.8,13.43c.2,0,.407.008.613.026A7.022,7.022,0,0,1,34.8,21.048c-.018.208-.045.415-.081.62l0,.262h.323l.05-.027a56.04,56.04,0,0,1,9.316-3.97l.809-.26a3.9,3.9,0,0,1,3.942.936L56,25.355A4.009,4.009,0,0,1,56.29,30.8a3.919,3.919,0,0,1-5.531.379q-.091-.078-.174-.161l-5.1-5.032-2.6,1.4,4.06,6.225a8.783,8.783,0,0,1,1.135,3.312l.011.081,7.94,7.227,7.124-2.6a4.6,4.6,0,0,1,5.7,2.24,4.452,4.452,0,0,1,.1,3.635,4.509,4.509,0,0,1-2.62,2.517l-9.8,3.583a4.474,4.474,0,0,1-4.495-.833l-8.3-6.1-3.927,5,4.534,9.873a4.621,4.621,0,0,1-1.107,5.421A4.447,4.447,0,0,1,40.8,68.015a4.362,4.362,0,0,1-.481.026,4.5,4.5,0,0,1-4.08-2.617L30.523,52.94a4.51,4.51,0,0,1,.429-4.482l4-7.557L32.44,36.5l-.965,1.983a3.9,3.9,0,0,1-2.723,2.379,1.167,1.167,0,0,0-.3.048c-.042.01-.081.021-.117.026l-4.758.648,3.009,5.167a8.546,8.546,0,0,1-3.131,11.673,8.59,8.59,0,0,1-3.648,1.122h-.632a8.546,8.546,0,0,1-8.511-8.58A8.6,8.6,0,0,1,11.5,47.316Zm42.118,3.425.111.089a1.893,1.893,0,0,0,1.262.482,1.936,1.936,0,0,0,.453-.055l.211-.064,9.807-3.577A1.927,1.927,0,0,0,66.58,46.54a1.89,1.89,0,0,0-.053-1.576,2.032,2.032,0,0,0-2.51-.916l-7.84,2.864a1.282,1.282,0,0,1-1.3-.257l-7-6.39-.1.338a8.813,8.813,0,0,1-1.505,2.871l-.933,1.189ZM27.942,38.335l.125.039.058-.013a1.34,1.34,0,0,0,.969-.846c.015-.04.032-.079.052-.12L31.2,33.174a1.284,1.284,0,0,1,2.271-.072l4.069,7.108a1.281,1.281,0,0,1,0,1.242l-4.4,8.311a1.321,1.321,0,0,1-.121.189,1.871,1.871,0,0,0-.186,1.915l5.73,12.491a1.942,1.942,0,0,0,1.756,1.121,1.907,1.907,0,0,0,.207-.011l.207-.033a1.948,1.948,0,0,0,.861-.444,2.021,2.021,0,0,0,.391-2.37L37.157,52.03a1.281,1.281,0,0,1,.16-1.331l6.923-8.817a6.156,6.156,0,0,0,.488-6.974L39.946,27.58A1.284,1.284,0,0,1,40.32,25.8c.034-.022.068-.043.1-.061l4.692-2.455a1.29,1.29,0,0,1,.6-.146,1.277,1.277,0,0,1,.905.373l5.76,5.689a1.36,1.36,0,0,0,1.986-.091,1.419,1.419,0,0,0-.165-1.917l-6.834-6.774a1.325,1.325,0,0,0-.936-.384,1.349,1.349,0,0,0-.412.065l-.808.259a53.4,53.4,0,0,0-8.884,3.792,3.083,3.083,0,0,1-3.73-.643,2.051,2.051,0,0,1-.467-1.942,4.427,4.427,0,0,0-.077-2.6,4.512,4.512,0,0,0-4.773-3,4.451,4.451,0,0,0-3.9,4.933A4.5,4.5,0,0,0,27.8,24.87a4.233,4.233,0,0,0,.449-.024l.5-.1a1.893,1.893,0,0,1,1.721,3.133,5.485,5.485,0,0,0-1.157,1.767L27.1,35.079a1.286,1.286,0,0,1-1.028.791L18.131,36.9a1.439,1.439,0,0,0-1.315,1.445,1.333,1.333,0,0,0,.5.945,1.3,1.3,0,0,0,.838.306,1.216,1.216,0,0,0,.191-.014ZM14.249,54.376a5.977,5.977,0,0,0,10.113-6.366l-3.573-6.1-2.1.274a3.8,3.8,0,0,1-1.617-.114l-.184-.054-3.047,6.431A5.935,5.935,0,0,0,14.249,54.376Z" transform="translate(60.336 255.884)"/></g></svg>