<?xml version="1.0" encoding="UTF-8" standalone="no"?>
<!-- Created with Inkscape (http://www.inkscape.org/) -->

<svg
   version="1.1"
   id="svg2"
   width="744.67999"
   height="653.98669"
   viewBox="0 0 744.67999 653.98669"
   sodipodi:docname="EU_EYY_Logo_EN_1.eps"
   xmlns:inkscape="http://www.inkscape.org/namespaces/inkscape"
   xmlns:sodipodi="http://sodipodi.sourceforge.net/DTD/sodipodi-0.dtd"
   xmlns="http://www.w3.org/2000/svg"
   xmlns:svg="http://www.w3.org/2000/svg">
  <defs
     id="defs6" />
  <sodipodi:namedview
     id="namedview4"
     pagecolor="#ffffff"
     bordercolor="#000000"
     borderopacity="0.25"
     inkscape:showpageshadow="2"
     inkscape:pageopacity="0.0"
     inkscape:pagecheckerboard="0"
     inkscape:deskcolor="#d1d1d1" />
  <g
     id="g8"
     inkscape:groupmode="layer"
     inkscape:label="ink_ext_XXXXXX"
     transform="matrix(1.3333333,0,0,-1.3333333,0,653.98667)">
    <g
       id="g10"
       transform="scale(0.1)">
      <path
         d="m 2304.36,4083.1 62.33,-185.46 195.64,1.95 -157.13,-116.57 62.35,-185.45 -159.46,113.39 -157.11,-116.59 58.59,186.68 -159.44,113.41 195.65,1.95 58.58,186.69 v 0"
         style="fill:#d8fff6;fill-opacity:1;fill-rule:nonzero;stroke:none"
         id="path12" />
      <path
         d="m 2889.74,4680.37 62.33,-185.46 195.62,1.97 -157.11,-116.58 62.33,-185.46 -159.44,113.39 -157.11,-116.57 58.59,186.67 -159.44,113.4 195.65,1.97 58.58,186.67 v 0"
         style="fill:#d8fff6;fill-opacity:1;fill-rule:nonzero;stroke:none"
         id="path14" />
      <path
         d="m 4533.43,1898.43 62.33,-185.46 195.62,1.97 -157.11,-116.58 62.33,-185.46 -159.44,113.41 -157.11,-116.59 58.59,186.67 -159.44,113.4 195.65,1.97 58.58,186.67 v 0"
         style="fill:#d8fff6;fill-opacity:1;fill-rule:nonzero;stroke:none"
         id="path16" />
      <path
         d="m 5118.8,2495.71 62.33,-185.46 195.63,1.97 -157.11,-116.59 62.33,-185.45 -159.43,113.41 -157.13,-116.59 58.58,186.66 -159.42,113.41 195.64,1.97 58.58,186.67 v 0"
         style="fill:#d8fff6;fill-opacity:1;fill-rule:nonzero;stroke:none"
         id="path18" />
      <path
         d="m 5268.55,3118.97 -195.65,-1.97 159.42,-113.38 -58.57,-186.69 157.11,116.61 159.44,-113.43 -62.33,185.46 157.11,116.59 -195.62,-1.95 -62.33,185.43 -58.58,-186.67 v 0"
         style="fill:#d8fff6;fill-opacity:1;fill-rule:nonzero;stroke:none"
         id="path20" />
      <path
         d="m 5102.55,4111.25 62.33,-185.48 195.63,1.97 -157.12,-116.57 62.33,-185.45 -159.44,113.39 -157.11,-116.59 58.58,186.68 -159.43,113.39 195.65,1.97 58.58,186.69 v 0"
         style="fill:#d8fff6;fill-opacity:1;fill-rule:nonzero;stroke:none"
         id="path22" />
      <path
         d="m 4505.28,4696.62 62.33,-185.45 195.62,1.97 -157.11,-116.59 62.33,-185.46 -159.44,113.39 -157.11,-116.57 58.57,186.67 -159.42,113.4 195.65,1.97 58.58,186.67 v 0"
         style="fill:#d8fff6;fill-opacity:1;fill-rule:nonzero;stroke:none"
         id="path24" />
      <path
         d="m 3695.33,4904.94 -58.57,-186.66 -195.67,-1.97 159.44,-113.41 -58.58,-186.68 157.12,116.59 159.44,-113.39 -62.33,185.45 157.11,116.59 -195.63,-1.95 -62.33,185.43 v 0"
         style="fill:#d8fff6;fill-opacity:1;fill-rule:nonzero;stroke:none"
         id="path26" />
      <path
         d="M 0,3345.39 166.129,523.238 560.762,523.219 578.109,0 2626.67,523.012 3860.27,522.898 4450.88,3508.53 0,3345.39 v 0"
         style="fill:#d8fff6;fill-opacity:1;fill-rule:nonzero;stroke:none"
         id="path28" />
      <path
         d="m 732.238,1436.81 -65.437,-86.81 -49.879,-80.99 -21.371,81.64 -27.871,86.16 H 452.379 l -1.949,-7.12 95.242,-266.92 -38.231,-179.45 h 114.028 l 38.211,179.45 207.32,266.92 1.93,7.12 H 732.238 Z M 1040.61,976.199 c 150.29,0 271.45,114.671 271.45,287.001 0,104.29 -73.87,180.09 -180.76,180.09 -167.78,0 -276.62,-121.16 -276.62,-286.34 0,-107.55 79.039,-180.751 185.93,-180.751 m 18.79,112.721 c -58.95,0 -88.111,29.8 -88.111,90.71 0,82.26 55.721,150.93 136.691,150.93 53.76,0 87.47,-33.04 87.47,-86.8 0,-86.16 -57.03,-154.84 -136.05,-154.84 m 483.92,-112.721 c 130.87,0 187.23,68.031 211.2,181.401 l 59.6,279.21 H 1698.8 l -59.6,-278.57 c -9.72,-45.35 -31.09,-70.61 -80.33,-70.61 -34.99,0 -53.76,16.2 -53.76,47.29 0,6.48 0.64,14.24 2.57,22.03 l 59.6,279.86 h -115.3 l -58.31,-272.74 c -3.24,-15.55 -5.17,-30.44 -5.17,-44.71 0,-84.85 57.65,-143.161 154.82,-143.161 m 678.27,460.611 h -324.56 l -22.66,-106.25 h 104.93 l -73.84,-347.24 h 114.01 l 73.87,347.24 h 105.58 l 22.67,106.25 z m 345.94,0 -35.63,-167.13 h -144.46 l 35.64,167.13 h -115.32 l -96.53,-453.49 h 115.32 l 38.21,180.11 h 144.48 l -38.23,-180.11 h 115.32 l 96.52,453.49 h -115.32 v 0"
         style="fill:#ffffff;fill-opacity:1;fill-rule:nonzero;stroke:none"
         id="path30" />
      <path
         d="m 694.352,2156.73 -65.442,-86.81 -49.879,-80.99 -21.371,81.63 -27.871,86.17 H 414.488 l -1.949,-7.13 95.242,-266.92 -38.242,-179.44 h 114.039 l 38.211,179.44 207.32,266.92 1.93,7.13 H 694.352 Z m 456.708,-106.25 22.68,106.25 H 901.648 l -96.527,-453.49 h 277.929 l 22.67,106.24 H 941.809 l 14.269,69.32 h 145.762 l 22.66,104.31 H 978.75 l 14.25,67.37 h 158.06 z m 336.22,110.77 h -49.22 l -301.25,-451.54 -1.3,-6.47 h 134.11 l 34.97,57.67 h 161.32 l 12.31,-57.67 h 116.61 l 1.29,6.47 -108.84,451.54 z m -42.1,-297.98 h -79.04 l 65.44,117.25 13.6,-117.25 z m 633.57,155.46 c 0,88.11 -57.01,138 -139.93,138 h -179.45 l -96.53,-453.49 h 114.02 l 29.8,139.94 h 60.91 l 43.4,-139.94 h 127.61 l 0.65,3.24 -58.3,156.12 c 62.2,27.23 97.82,81.64 97.82,156.13 m -227.38,35.64 h 68.67 c 29.14,0 45.98,-15.56 45.98,-42.12 0,-41.45 -27.85,-68.66 -69.32,-68.66 h -68.65 l 23.32,110.78 z m 662.07,-358.26 c 150.3,0 271.43,114.68 271.43,287 0,104.3 -73.85,180.1 -180.74,180.1 -167.79,0 -276.61,-121.16 -276.61,-286.34 0,-107.55 79.04,-180.76 185.92,-180.76 m 18.78,112.73 c -58.94,0 -88.1,29.8 -88.1,90.71 0,82.26 55.72,150.93 136.69,150.93 53.77,0 87.45,-33.04 87.45,-86.8 0,-86.17 -57,-154.84 -136.04,-154.84 m 646.54,241.64 22.01,106.25 H 2928.7 l -96.52,-453.49 h 114.01 l 36.28,170.39 h 139.93 l 22.03,104.29 h -139.95 l 15.56,72.56 h 158.72 v 0"
         style="fill:#ffffff;fill-opacity:1;fill-rule:nonzero;stroke:none"
         id="path32" />
      <path
         d="m 678.488,2770.4 22.672,106.24 H 429.07 l -96.519,-453.49 h 277.918 l 22.66,106.25 H 469.238 l 14.242,69.32 h 145.77 l 22.672,104.31 H 506.16 l 14.25,67.37 H 678.488 Z M 901.98,2416.03 c 130.86,0 187.22,68.03 211.2,181.4 l 59.6,279.21 h -115.32 l -59.601,-278.57 c -9.718,-45.35 -31.089,-70.61 -80.32,-70.61 -35,0 -53.769,16.2 -53.769,47.29 0,6.48 0.64,14.25 2.582,22.03 l 59.597,279.86 H 810.648 l -58.32,-272.73 c -3.238,-15.56 -5.187,-30.45 -5.187,-44.71 0,-84.86 57.668,-143.17 154.839,-143.17 m 709.37,322.62 c 0,88.11 -57.01,137.99 -139.93,137.99 h -179.45 l -96.53,-453.49 h 114.01 l 29.8,139.95 h 60.91 l 43.41,-139.95 h 127.61 l 0.65,3.24 -58.3,156.13 c 62.2,27.22 97.82,81.63 97.82,156.13 m -227.38,35.63 h 68.67 c 29.14,0 45.98,-15.55 45.98,-42.11 0,-41.46 -27.85,-68.66 -69.32,-68.66 h -68.66 l 23.33,110.77 z m 478.1,-358.25 c 150.29,0 271.42,114.67 271.42,287 0,104.29 -73.85,180.09 -180.73,180.09 -167.78,0 -276.62,-121.15 -276.62,-286.34 0,-107.55 79.04,-180.75 185.93,-180.75 m 18.77,112.72 c -58.94,0 -88.09,29.8 -88.09,90.71 0,82.26 55.71,150.94 136.68,150.94 53.77,0 87.46,-33.04 87.46,-86.81 0,-86.16 -57.01,-154.84 -136.05,-154.84 m 574.63,347.89 h -178.15 l -95.88,-453.49 h 115.3 l 26.56,125.04 h 82.28 c 121.16,0 195.65,84.88 195.65,191.76 0,90.69 -60.89,136.69 -145.76,136.69 m -49.89,-226.09 h -60.89 l 26.57,123.09 h 64.77 c 28.51,0 47.3,-18.8 47.3,-46 0,-44.05 -29.8,-77.09 -77.75,-77.09 m 569.44,119.85 22.68,106.24 h -272.09 l -96.53,-453.49 h 277.93 l 22.67,106.25 h -163.91 l 14.26,69.32 h 145.77 l 22.66,104.31 h -145.75 l 14.25,67.37 h 158.06 z m 336.22,110.77 h -49.22 l -301.25,-451.54 -1.29,-6.48 h 134.1 l 34.97,57.67 h 161.32 l 12.31,-57.67 h 116.61 l 1.29,6.48 -108.84,451.54 z m -42.1,-297.99 h -79.04 l 65.44,117.25 13.6,-117.25 z m 575.92,293.46 -30.45,-141.88 -18.79,-97.17 -166.49,241 h -46 l -96.53,-455.44 h 114.68 l 31.09,148.36 17.48,90.05 166.49,-239.7 h 46 l 97.17,454.78 h -114.65 v 0"
         style="fill:#ffffff;fill-opacity:1;fill-rule:nonzero;stroke:none"
         id="path34" />
    </g>
  </g>
</svg>
