<svg xmlns="http://www.w3.org/2000/svg" xmlns:xlink="http://www.w3.org/1999/xlink" width="57.896" height="40.689" viewBox="0 0 57.896 40.689"><defs><style>.a{fill:none;}.b{clip-path:url(#a);}.c{fill:#fffed7;;stroke:rgba(0,0,0,0);}</style><clipPath id="a"><rect class="a" width="57.896" height="40.689"/></clipPath></defs><g class="b"><path class="c" d="M-15291.791-6434.657a1.238,1.238,0,0,1-1.235-1.236v-25.615a1.238,1.238,0,0,1,1.235-1.236h19.083v-1.3a1.241,1.241,0,0,1,.752-1.136l6.1-2.618a.355.355,0,0,1,.039-.038v-5.27a1.235,1.235,0,0,1,1.235-1.236,1.235,1.235,0,0,1,1.236,1.236v5.27a.183.183,0,0,1,.034.038l6.106,2.618a1.236,1.236,0,0,1,.748,1.136v1.3h19.087a1.238,1.238,0,0,1,1.236,1.236v25.615a1.238,1.238,0,0,1-1.236,1.236Zm32.137-11.269a1.234,1.234,0,0,1,1.231,1.236v7.15a1.179,1.179,0,0,1-.073.411h19.893v-23.144h-19.082a1.239,1.239,0,0,1-1.24-1.236v-1.723l-5.653-2.426-5.657,2.426v1.723a1.235,1.235,0,0,1-1.235,1.236h-19.083v23.144h19.893a1.2,1.2,0,0,1-.077-.411v-7.15a1.238,1.238,0,0,1,1.236-1.236Zm-3.688,8.386a1.2,1.2,0,0,1-.077.411h2.6a1.2,1.2,0,0,1-.077-.411v-5.915h-2.448Zm-4.925,0a1.2,1.2,0,0,1-.072.411h2.6a1.2,1.2,0,0,1-.076-.411v-5.915h-2.453Zm24.525-4.061v-1.029a1.235,1.235,0,0,1,1.236-1.236,1.234,1.234,0,0,1,1.231,1.236v1.029a1.234,1.234,0,0,1-1.231,1.236A1.235,1.235,0,0,1-15243.742-6441.6Zm-5.934,0v-1.029a1.235,1.235,0,0,1,1.235-1.236,1.235,1.235,0,0,1,1.236,1.236v1.029a1.235,1.235,0,0,1-1.236,1.236A1.235,1.235,0,0,1-15249.676-6441.6Zm-5.934,0v-1.029a1.238,1.238,0,0,1,1.235-1.236,1.235,1.235,0,0,1,1.236,1.236v1.029a1.235,1.235,0,0,1-1.236,1.236A1.238,1.238,0,0,1-15255.609-6441.6Zm-20.583,0v-1.029a1.237,1.237,0,0,1,1.235-1.236,1.235,1.235,0,0,1,1.236,1.236v1.029a1.235,1.235,0,0,1-1.236,1.236A1.237,1.237,0,0,1-15276.192-6441.6Zm-5.934,0v-1.029a1.238,1.238,0,0,1,1.239-1.236,1.234,1.234,0,0,1,1.232,1.236v1.029a1.234,1.234,0,0,1-1.232,1.236A1.238,1.238,0,0,1-15282.126-6441.6Zm-5.931,0v-1.029a1.235,1.235,0,0,1,1.236-1.236,1.237,1.237,0,0,1,1.235,1.236v1.029a1.237,1.237,0,0,1-1.235,1.236A1.235,1.235,0,0,1-15288.057-6441.6Zm44.314-6.425v-1.029a1.238,1.238,0,0,1,1.236-1.236,1.241,1.241,0,0,1,1.235,1.24l0,1.028a1.235,1.235,0,0,1-1.235,1.236A1.237,1.237,0,0,1-15243.742-6448.024Zm-5.934-.008v-1.029a1.241,1.241,0,0,1,1.239-1.236,1.24,1.24,0,0,1,1.232,1.24v1.029a1.241,1.241,0,0,1-1.239,1.236A1.235,1.235,0,0,1-15249.676-6448.032Zm-5.934-.008v-1.028a1.241,1.241,0,0,1,1.239-1.236,1.237,1.237,0,0,1,1.232,1.239v1.029a1.238,1.238,0,0,1-1.236,1.236A1.241,1.241,0,0,1-15255.609-6448.04Zm-19.348,1.213a1.234,1.234,0,0,1-1.235-1.236v-1.029a1.24,1.24,0,0,1,1.239-1.236,1.23,1.23,0,0,1,1.232,1.236v1.033a1.235,1.235,0,0,1-1.229,1.232Zm-5.934-.008a1.234,1.234,0,0,1-1.235-1.236l0-1.028a1.235,1.235,0,0,1,1.236-1.236,1.237,1.237,0,0,1,1.235,1.24l0,1.028a1.229,1.229,0,0,1-1.229,1.232Zm-7.166-1.243v-1.029a1.239,1.239,0,0,1,1.24-1.236,1.238,1.238,0,0,1,1.231,1.24v1.028a1.239,1.239,0,0,1-1.239,1.236A1.234,1.234,0,0,1-15288.057-6448.078Zm44.314-6.421v-1.032a1.235,1.235,0,0,1,1.236-1.236,1.234,1.234,0,0,1,1.231,1.236v1.032a1.234,1.234,0,0,1-1.231,1.236A1.235,1.235,0,0,1-15243.742-6454.5Zm-5.934,0v-1.032a1.235,1.235,0,0,1,1.235-1.236,1.235,1.235,0,0,1,1.236,1.236v1.032a1.235,1.235,0,0,1-1.236,1.236A1.235,1.235,0,0,1-15249.676-6454.5Zm-5.934,0v-1.032a1.238,1.238,0,0,1,1.235-1.236,1.235,1.235,0,0,1,1.236,1.236v1.032a1.235,1.235,0,0,1-1.236,1.236A1.238,1.238,0,0,1-15255.609-6454.5Zm-20.583,0v-1.032a1.237,1.237,0,0,1,1.235-1.236,1.235,1.235,0,0,1,1.236,1.236v1.032a1.235,1.235,0,0,1-1.236,1.236A1.237,1.237,0,0,1-15276.192-6454.5Zm-5.934,0v-1.032a1.238,1.238,0,0,1,1.239-1.236,1.234,1.234,0,0,1,1.232,1.236v1.032a1.234,1.234,0,0,1-1.232,1.236A1.238,1.238,0,0,1-15282.126-6454.5Zm-5.931,0v-1.032a1.235,1.235,0,0,1,1.236-1.236,1.237,1.237,0,0,1,1.235,1.236v1.032a1.237,1.237,0,0,1-1.235,1.236A1.235,1.235,0,0,1-15288.057-6454.5Z" transform="translate(15293.526 6474.846)"/></g></svg>
