<svg xmlns="http://www.w3.org/2000/svg" width="36" height="36" viewBox="0 0 36 36">
  <g id="Facebook" transform="translate(-1645 -336.314)">
    <g id="Path_2024" data-name="Path 2024" transform="translate(1645 336.314)" fill="none">
      <path d="M18,0A18,18,0,1,1,0,18,18,18,0,0,1,18,0Z" stroke="none"/>
      <path d="M 18 3 C 13.99336051940918 3 10.22653007507324 4.560270309448242 7.393400192260742 7.393400192260742 C 4.560270309448242 10.22653007507324 3 13.99336051940918 3 18 C 3 22.00664138793945 4.560270309448242 25.77346992492676 7.393400192260742 28.60659980773926 C 10.22653007507324 31.43972969055176 13.99336051940918 33 18 33 C 22.00664138793945 33 25.77346992492676 31.43972969055176 28.60659980773926 28.60659980773926 C 31.43972969055176 25.77346992492676 33 22.00664138793945 33 18 C 33 13.99336051940918 31.43972969055176 10.22653007507324 28.60659980773926 7.393400192260742 C 25.77346992492676 4.560270309448242 22.00664138793945 3 18 3 M 18 0 C 27.94112014770508 0 36 8.058879852294922 36 18 C 36 27.94112014770508 27.94112014770508 36 18 36 C 8.058879852294922 36 0 27.94112014770508 0 18 C 0 8.058879852294922 8.058879852294922 0 18 0 Z" stroke="none" fill="#FFFFFF"/>
    </g>
    <path id="Path_1652" data-name="Path 1652" d="M47.073-89.458v2.5h-1.49a1.4,1.4,0,0,0-1.1.341,1.572,1.572,0,0,0-.285,1.025v1.793h2.78l-.37,2.808H44.2v7.2h-2.9v-7.2H38.876v-2.808h2.419v-2.068a3.668,3.668,0,0,1,.987-2.737,3.581,3.581,0,0,1,2.628-.972A15.707,15.707,0,0,1,47.073-89.458Z" transform="translate(1620.232 436.406)" fill="#FFFFFF"/>
  </g>
</svg>
