<svg xmlns="http://www.w3.org/2000/svg" width="12.675" height="30" viewBox="0 0 12.675 30"><defs><style>.a{fill:#fff;}</style></defs><path class="a" d="M85.515,43.338a5.429,5.429,0,1,0-5.429-5.43A5.436,5.436,0,0,0,85.515,43.338Zm0-8.638a3.208,3.208,0,1,1-3.208,3.208A3.212,3.212,0,0,1,85.515,34.7Z" transform="translate(-79.178 -32.479)"/><path class="a" d="M90.3,82.928l-1.472-11.21a4.856,4.856,0,0,0-9.71,0l-1.473,11.21a1.11,1.11,0,0,0,1.1,1.255H89.2a1.111,1.111,0,0,0,1.1-1.255Zm-10.288-.966,1.317-10.022a1.183,1.183,0,0,0,.009-.145,2.635,2.635,0,1,1,5.27,0,1.112,1.112,0,0,0,.009.145L87.93,81.962Z" transform="translate(-77.632 -54.183)"/></svg>