<svg id="Group_218" data-name="Group 218" xmlns="http://www.w3.org/2000/svg" width="23.128" height="23.022" viewBox="0 0 23.128 23.022">
  <g id="Group_217" data-name="Group 217">
    <path id="Path_916" data-name="Path 916" d="M114.379,81.1c.016,0,1.153-.25,2.248-2.287L115.1,78.43h0L113.588,78c-.082,2.328.79,3.11.79,3.11Z" transform="translate(-100.543 -77.997)" fill="#fff"/>
    <path id="Path_917" data-name="Path 917" d="M111.77,84.2l-1.325-.636.133,2.647A5.525,5.525,0,0,0,111.77,84.2Z" transform="translate(-99.292 -80.217)" fill="#fff"/>
    <path id="Path_918" data-name="Path 918" d="M109.739,86.214l-.132-2.647-1.254.765A5.523,5.523,0,0,0,109.739,86.214Z" transform="translate(-98.458 -80.218)" fill="#fff"/>
    <path id="Path_919" data-name="Path 919" d="M122.392,86.089h0c.016.007,1.08.476,3.164-.527l-1.005-1.211h0l-.968-1.242C122.147,84.944,122.392,86.089,122.392,86.089Z" transform="translate(-104.049 -80.035)" fill="#fff"/>
    <path id="Path_920" data-name="Path 920" d="M118.3,87.056l-.7-1.293-1.45,2.219A5.525,5.525,0,0,0,118.3,87.056Z" transform="translate(-101.567 -81.093)" fill="#fff"/>
    <path id="Path_921" data-name="Path 921" d="M116.05,87.9l1.45-2.219-1.465-.119A5.523,5.523,0,0,0,116.05,87.9Z" transform="translate(-101.47 -81.013)" fill="#fff"/>
    <path id="Path_922" data-name="Path 922" d="M119.713,93.255a5.519,5.519,0,0,0,2.28.514l.2-1.456Z" transform="translate(-102.987 -83.704)" fill="#fff"/>
    <path id="Path_923" data-name="Path 923" d="M121.073,90.713a5.526,5.526,0,0,0-1.363,1.9l2.477-.942Z" transform="translate(-102.986 -83.067)" fill="#fff"/>
    <path id="Path_924" data-name="Path 924" d="M123.237,104.936h0c0,.017-.12,1.174,1.476,2.848l.842-1.33h0l.882-1.3C124.251,104.35,123.237,104.936,123.237,104.936Z" transform="translate(-104.392 -88.655)" fill="#fff"/>
    <path id="Path_925" data-name="Path 925" d="M121.532,101.311l1.016-1.062-2.557-.7A5.518,5.518,0,0,0,121.532,101.311Z" transform="translate(-103.098 -86.591)" fill="#fff"/>
    <path id="Path_926" data-name="Path 926" d="M128.354,95.164,128.3,93.59c-2.24.64-2.715,1.71-2.715,1.71h0c.008.014.594,1.02,2.868,1.435l-.1-1.571Z" transform="translate(-105.328 -84.214)" fill="#fff"/>
    <path id="Path_927" data-name="Path 927" d="M122.211,98.325a5.523,5.523,0,0,0-2.22.735l2.558.7Z" transform="translate(-103.098 -86.101)" fill="#fff"/>
    <path id="Path_928" data-name="Path 928" d="M115.891,110.68v0c-.011.013-.788.879-.481,3.171l1.463-.58h0l1.48-.535C117.055,110.8,115.891,110.68,115.891,110.68Z" transform="translate(-101.243 -91.027)" fill="#fff"/>
    <path id="Path_929" data-name="Path 929" d="M117.049,106.635l1.446-.261-1.66-2.067A5.526,5.526,0,0,0,117.049,106.635Z" transform="translate(-101.815 -88.486)" fill="#fff"/>
    <path id="Path_930" data-name="Path 930" d="M118.542,106.369l.568-1.355a5.522,5.522,0,0,0-2.227-.711Z" transform="translate(-101.859 -88.484)" fill="#fff"/>
    <path id="Path_931" data-name="Path 931" d="M105.817,111.111c-.016,0-1.153.248-2.254,2.281l1.525.391h0l1.512.438c.087-2.328-.782-3.111-.782-3.111Z" transform="translate(-96.549 -91.198)" fill="#fff"/>
    <path id="Path_932" data-name="Path 932" d="M110.771,106.319a5.521,5.521,0,0,0-1.2,2.008l1.323.639Z" transform="translate(-98.945 -89.288)" fill="#fff"/>
    <path id="Path_933" data-name="Path 933" d="M111.571,106.319l.126,2.648,1.256-.762A5.517,5.517,0,0,0,111.571,106.319Z" transform="translate(-99.741 -89.288)" fill="#fff"/>
    <path id="Path_934" data-name="Path 934" d="M97.729,106.118h0c-.016-.007-1.079-.479-3.165.519l1,1.213h0l.965,1.244C97.972,107.263,97.729,106.118,97.729,106.118Z" transform="translate(-92.96 -89.162)" fill="#fff"/>
    <path id="Path_935" data-name="Path 935" d="M102.509,105.742l.694,1.3,1.455-2.215A5.518,5.518,0,0,0,102.509,105.742Z" transform="translate(-96.128 -88.691)" fill="#fff"/>
    <path id="Path_936" data-name="Path 936" d="M108.308,97.289l.522.595.746-.147.786.124-.854-2.243,0-.007.853,2.25.5-.6.7-.37-2.04-1.333,0,0,2.038,1.337.111-.769.283-.713-2.422.11v0l2.42-.106-.424-.673-.115-.784-1.862,1.5,0-.007,1.861-1.492-.734-.292-.564-.587-.646,2.426-.007.011v0l.653-2.434-.771.086.057,1.182-.062-1.181-.763.038.881,2.31v.008l0,0-.877-2.313-.482.613-.737.34,2.092,1.364,0,.007-.007,0-2.09-1.369-.059.779-.336.714,2.483-.12.005,0,0,0h0l-2.485.115.405.675.155.769,1.919-1.549-.008.013-1.912,1.536.775.209Zm1.155-1.774h0Z" transform="translate(-97.907 -84.006)" fill="#fff"/>
    <path id="Path_937" data-name="Path 937" d="M105.125,104.826l-1.455,2.215,1.464.122A5.521,5.521,0,0,0,105.125,104.826Z" transform="translate(-96.591 -88.693)" fill="#fff"/>
    <path id="Path_938" data-name="Path 938" d="M94.765,96.862h0c-.008-.015-.591-1.022-2.865-1.442l.1,1.571h0l.049,1.573C94.287,97.932,94.765,96.862,94.765,96.862Z" transform="translate(-91.898 -84.944)" fill="#fff"/>
    <path id="Path_939" data-name="Path 939" d="M98.407,100.978l2.48-.936a5.522,5.522,0,0,0-2.279-.52Z" transform="translate(-94.493 -86.579)" fill="#fff"/>
    <path id="Path_940" data-name="Path 940" d="M100.89,100.394l-2.48.936,1.112.96A5.526,5.526,0,0,0,100.89,100.394Z" transform="translate(-94.494 -86.926)" fill="#fff"/>
    <path id="Path_941" data-name="Path 941" d="M96.912,87.293h0c0-.017.123-1.174-1.468-2.851L94.6,85.768h0l-.885,1.3C95.9,87.876,96.912,87.293,96.912,87.293Z" transform="translate(-92.621 -80.566)" fill="#fff"/>
    <path id="Path_942" data-name="Path 942" d="M99.035,91.783l-1.018,1.059,2.556.7A5.517,5.517,0,0,0,99.035,91.783Z" transform="translate(-94.337 -83.493)" fill="#fff"/>
    <path id="Path_943" data-name="Path 943" d="M98.015,93.552l.335,1.431a5.519,5.519,0,0,0,2.221-.729Z" transform="translate(-94.337 -84.198)" fill="#fff"/>
    <path id="Path_944" data-name="Path 944" d="M104.349,81.49l.008.023.015-.018.026,0-.01-.026a4.277,4.277,0,0,0,.443-3.134l-1.462.584h0l-1.429.513A4.274,4.274,0,0,0,104.349,81.49Z" transform="translate(-95.902 -78.134)" fill="#fff"/>
    <path id="Path_945" data-name="Path 945" d="M104.088,86.094l-1.447.257,1.654,2.071A5.516,5.516,0,0,0,104.088,86.094Z" transform="translate(-96.181 -81.225)" fill="#fff"/>
    <path id="Path_946" data-name="Path 946" d="M102.257,86.527l-.571,1.354a5.52,5.52,0,0,0,2.225.717Z" transform="translate(-95.8 -81.398)" fill="#fff"/>
  </g>
</svg>
