<svg xmlns="http://www.w3.org/2000/svg" width="40" height="39.85" viewBox="0 0 40 39.85"><defs><style>.a{fill:#1e1e1e;}</style></defs><g transform="translate(-12.243 -7.69)"><path class="a" d="M32.317,7.69a19.921,19.921,0,0,0-16.81,30.618l-3.228,8.479a.556.556,0,0,0,.747.705l7.9-3.535A19.924,19.924,0,1,0,32.317,7.69Zm0,36.911a16.854,16.854,0,0,1-9.934-3.213,2.384,2.384,0,0,0-2.369-.244l-2.942,1.317,1.282-3.371a2.382,2.382,0,0,0-.235-2.158,16.983,16.983,0,1,1,14.2,7.668Z" transform="translate(0 0)"/><path class="a" d="M40.626,37.611H34.751v2.358h5.393V41.9H34.751v2.855H40.9v2H32.484v-11.1h8.142Z" transform="translate(-9.833 -13.581)"/><path class="a" d="M52.289,35.645h2.432l4.408,7.741V35.645h2.161v11.1H58.97l-4.52-7.877v7.877H52.289Z" transform="translate(-19.455 -13.581)"/></g></svg>