<svg xmlns="http://www.w3.org/2000/svg" width="40" height="39.85" viewBox="0 0 40 39.85"><defs><style>.a{fill:#1e1e1e;}</style></defs><g transform="translate(-12.243 -7.69)"><path class="a" d="M-1.623,0V-2.125h-5.61V-4.692h5.491V-6.817H-7.233v-2.4h5.61v-2.125H-9.648V0ZM10.838,0,6.469-11.339H3.443L-.943,0H1.811L4.956-8.925,8.084,0Z" transform="translate(32.157 33.69)"/><path class="a" d="M32.317,7.69a19.921,19.921,0,0,0-16.81,30.618l-3.228,8.479a.556.556,0,0,0,.747.705l7.9-3.535A19.924,19.924,0,1,0,32.317,7.69Zm0,36.911a16.854,16.854,0,0,1-9.934-3.213,2.384,2.384,0,0,0-2.369-.244l-2.942,1.317,1.282-3.371a2.382,2.382,0,0,0-.235-2.158,16.983,16.983,0,1,1,14.2,7.668Z" transform="translate(0 0)"/></g></svg>