<svg xmlns="http://www.w3.org/2000/svg" xmlns:xlink="http://www.w3.org/1999/xlink" width="287.97" height="42.246" viewBox="0 0 287.97 42.246">
  <defs>
    <clipPath id="clip-path">
      <rect width="287.805" height="41.489" fill="none"/>
    </clipPath>
  </defs>
  <g id="Group_521" data-name="Group 521" transform="translate(-39.835 -19.242)">
    <g id="Logo-black" transform="translate(40 20)" clip-path="url(#clip-path)">
      <g id="Group_516" data-name="Group 516">
        <g id="Group_210" data-name="Group 210" transform="translate(71.429 6.667)">
          <path id="Path_907" data-name="Path 907" d="M164.152,111.291c-3.866,0-7.293-2.64-8.752-6.731l4.5-1.829c.909,2.45,2.6,3.97,4.419,3.97,1.608,0,3.316-.86,3.316-2.456,0-1.339-1.862-1.881-3.834-2.453l-.094-.029c-3.271-.98-6.651-1.994-6.651-6.265,0-3.706,3.008-6.4,7.154-6.4,2.494,0,5.8,1.027,7.4,5.9L167.061,96c-.856-2.173-2.208-2.517-3.159-2.5-1.277.024-2.125.631-2,1.954s1.925,1.789,3.732,2.353c3.007.9,7.025,2.031,7.025,6.437C172.655,107.707,169.475,111.291,164.152,111.291Z" transform="translate(-155.4 -84.896)" fill="#1a1a1a"/>
          <rect id="Rectangle_1177" data-name="Rectangle 1177" width="4.568" height="20.809" transform="translate(68.521 4.896)" fill="#1a1a1a"/>
          <path id="Path_908" data-name="Path 908" d="M233.833,111.291c-3.867,0-7.295-2.64-8.752-6.731l4.494-1.829c.91,2.45,2.6,3.97,4.421,3.97,1.607,0,3.316-.86,3.316-2.456,0-1.339-1.862-1.881-3.834-2.453l-.1-.029c-3.269-.98-6.65-1.994-6.65-6.265,0-3.706,3.008-6.4,7.154-6.4,2.494,0,5.8,1.027,7.4,5.9L236.742,96c-.856-2.173-2.208-2.517-3.159-2.5-1.277.024-2.125.631-2,1.954s1.925,1.789,3.73,2.353c3.008.9,7.027,2.031,7.027,6.437C242.336,107.707,239.155,111.291,233.833,111.291Z" transform="translate(-125.646 -84.896)" fill="#1a1a1a"/>
          <path id="Path_909" data-name="Path 909" d="M284.85,89.263c-.127,0-.253.011-.378.017l.006.016c-.18,0-.358.006-.537.016a12,12,0,0,0-4.678,1.54,11.132,11.132,0,0,0-4.97,9.377v19.42H279.2V100.922a5.844,5.844,0,0,1-.046-.694v-.208a5.7,5.7,0,1,1,5.7,5.9,5.633,5.633,0,0,1-1.721-.268l-2.619,4.676a9.807,9.807,0,0,0,4.34.862,11.213,11.213,0,0,0,10.962-10.964A11,11,0,0,0,284.85,89.263Z" transform="translate(-104.633 -84.827)" fill="#1a1a1a"/>
          <g id="Group_205" data-name="Group 205" transform="translate(19.37 4.436)">
            <path id="Path_910" data-name="Path 910" d="M175.374,110.2c-3.917-2.248-6.4-6.086-6.4-9.978a11.035,11.035,0,0,1,22.07,0c0,4-2.539,7.676-6.292,9.868l-2.868-4.111c2.427-1.37,4.138-3.509,4.138-5.757a6.014,6.014,0,0,0-12.027,0c0,2.3,1.765,4.551,4.3,5.868Z" transform="translate(-168.974 -89.263)" fill="#1a1a1a"/>
            <ellipse id="Ellipse_60" data-name="Ellipse 60" cx="10.844" cy="11.035" rx="10.844" ry="11.035" transform="translate(0.191 0)" fill="none"/>
          </g>
          <g id="Group_206" data-name="Group 206" transform="translate(43.459 4.436)">
            <path id="Path_911" data-name="Path 911" d="M206.8,104.933c-2.249,3.917-6.088,6.4-9.979,6.4a11.035,11.035,0,0,1,0-22.07c4,0,7.676,2.539,9.868,6.292l-4.111,2.868c-1.37-2.427-3.508-4.138-5.757-4.138a6.014,6.014,0,0,0,0,12.027c2.3,0,4.551-1.765,5.868-4.3Z" transform="translate(-185.855 -89.263)" fill="#1a1a1a"/>
            <ellipse id="Ellipse_61" data-name="Ellipse 61" cx="11.035" cy="10.845" rx="11.035" ry="10.845" transform="translate(0 0.191)" fill="none"/>
          </g>
          <g id="Group_207" data-name="Group 207" transform="translate(120.2 4.436)">
            <path id="Path_912" data-name="Path 912" d="M260.576,104.933c-2.249,3.917-6.088,6.4-9.979,6.4a11.035,11.035,0,0,1,0-22.07c4,0,7.676,2.539,9.868,6.292l-4.111,2.868c-1.37-2.427-3.508-4.138-5.757-4.138a6.014,6.014,0,0,0,0,12.027c2.3,0,4.551-1.765,5.868-4.3Z" transform="translate(-239.633 -89.263)" fill="#1a1a1a"/>
            <ellipse id="Ellipse_62" data-name="Ellipse 62" cx="11.035" cy="10.845" rx="11.035" ry="10.845" transform="translate(0.001 0.191)" fill="none"/>
          </g>
          <g id="Group_208" data-name="Group 208" transform="translate(140.114 0.109)">
            <path id="Path_913" data-name="Path 913" d="M263.738,89.732c4.361-1.189,8.83-.224,11.583,2.549a11.166,11.166,0,0,1-.05,15.664,10.978,10.978,0,0,1-15.556.051c-2.831-2.85-3.633-7.274-2.529-11.507l4.935.886c-.748,2.7-.445,5.444,1.144,7.045a5.978,5.978,0,0,0,8.476-.029,6.079,6.079,0,0,0,.029-8.535c-1.63-1.641-4.468-1.985-7.194-1.115Z" transform="translate(-252.255 -84.949)" fill="#1a1a1a"/>
            <ellipse id="Ellipse_63" data-name="Ellipse 63" cx="10.875" cy="11.082" rx="10.875" ry="11.082" transform="translate(0 12.157) rotate(-33.981)" fill="none"/>
          </g>
          <g id="Group_209" data-name="Group 209" transform="translate(71.913 0)">
            <path id="Path_914" data-name="Path 914" d="M209.579,104.027c-1.18-4.361-.223-8.83,2.53-11.583a11.036,11.036,0,0,1,15.606,15.607c-2.83,2.83-7.222,3.633-11.427,2.529l.88-4.935c2.684.746,5.407.444,7-1.146a6.014,6.014,0,0,0-8.5-8.5c-1.628,1.628-1.969,4.467-1.106,7.192Z" transform="translate(-204.39 -84.828)" fill="#1a1a1a"/>
            <ellipse id="Ellipse_64" data-name="Ellipse 64" cx="11.035" cy="10.844" rx="11.035" ry="10.844" transform="translate(0 15.606) rotate(-45)" fill="none"/>
          </g>
          <path id="Path_915" data-name="Path 915" d="M302.61,89.4a11.007,11.007,0,1,0,7.419,19.132l-2.571-3.642a6.738,6.738,0,0,1-4.848,2.1,6.578,6.578,0,0,1-6.2-4.38H313.4A11.011,11.011,0,0,0,302.61,89.4Zm-6.2,8.806a6.572,6.572,0,0,1,12.392,0Z" transform="translate(-97.241 -84.77)" fill="#1a1a1a"/>
        </g>
      </g>
    </g>
    <g id="Group_519" data-name="Group 519" transform="translate(-183.029 -485.298)">
      <g id="Group_518" data-name="Group 518" transform="translate(222.864 504.54)">
        <g id="Group_517" data-name="Group 517" transform="translate(0)">
          <path id="Path_1183" data-name="Path 1183" d="M339.783,482.016c.03,0,2.029-.335,4.112-3.782l-2.621-.808v0l-2.6-.888c-.345,4.044,1.1,5.48,1.1,5.48Z" transform="translate(-315.049 -476.54)"/>
          <path id="Path_1184" data-name="Path 1184" d="M326.2,490.891l-2.249,1.222a9.618,9.618,0,0,0,2.249,3.4,9.683,9.683,0,0,0,2.257-3.4Z" transform="translate(-306.165 -485.229)"/>
          <path id="Path_1185" data-name="Path 1185" d="M360.767,496.613l0,0c.026.013,1.837.922,5.55-.64l-1.644-2.2h0l-1.576-2.244C360.441,494.6,360.767,496.613,360.767,496.613Z" transform="translate(-328.449 -485.618)"/>
          <path id="Path_1186" data-name="Path 1186" d="M346.479,497.275l-2.544-.339a9.681,9.681,0,0,0-.172,4.073,9.618,9.618,0,0,0,3.816-1.423Z" transform="translate(-318.059 -488.848)"/>
          <path id="Path_1187" data-name="Path 1187" d="M355.412,511.38a9.614,9.614,0,0,0-2.537,3.186,9.684,9.684,0,0,0,3.925,1.1l.467-2.523Z" transform="translate(-323.678 -497.563)"/>
          <path id="Path_1188" data-name="Path 1188" d="M360.725,549.214l0,0c0,.029-.312,2.032,2.319,5.083l1.582-2.24,0,0,1.649-2.191C362.54,548.283,360.725,549.214,360.725,549.214Z" transform="translate(-328.425 -520.193)"/>
          <path id="Path_1189" data-name="Path 1189" d="M372.944,522.831l.045-2.742c-3.953.917-4.873,2.737-4.873,2.737h0c.013.027.943,1.827,4.865,2.747l-.038-2.742Z" transform="translate(-332.906 -502.815)"/>
          <path id="Path_1190" data-name="Path 1190" d="M357.252,534.33h0l-.464-2.517a9.614,9.614,0,0,0-3.925,1.084h0a9.617,9.617,0,0,0,2.529,3.192l1.86-1.758Z" transform="translate(-323.67 -509.893)"/>
          <path id="Path_1191" data-name="Path 1191" d="M339.7,563.573v0c-.021.021-1.447,1.46-1.114,5.475l2.6-.881v0l2.622-.8C341.711,563.888,339.7,563.573,339.7,563.573Z" transform="translate(-314.993 -529.052)"/>
          <path id="Path_1192" data-name="Path 1192" d="M346.419,550.493l1.105-2.309a9.619,9.619,0,0,0-3.812-1.432h0a9.618,9.618,0,0,0,.168,4.068l2.538-.328h0Z" transform="translate(-318.026 -518.909)"/>
          <path id="Path_1193" data-name="Path 1193" d="M311.376,563.523c-.029,0-2.029.33-4.121,3.772l2.619.815v0l2.593.894c.355-4.043-1.09-5.482-1.09-5.482Z" transform="translate(-296.055 -529.019)"/>
          <path id="Path_1194" data-name="Path 1194" d="M326.15,551.383a9.614,9.614,0,0,0-2.257,3.39L326.139,556l2.26-1.217A9.685,9.685,0,0,0,326.15,551.383Z" transform="translate(-306.129 -521.671)"/>
          <path id="Path_1195" data-name="Path 1195" d="M289.982,549.067l0,0c-.026-.014-1.835-.927-5.552.627l1.639,2.2,0,0,1.571,2.248C290.3,551.081,289.982,549.067,289.982,549.067Z" transform="translate(-282.232 -520.101)"/>
          <path id="Path_1196" data-name="Path 1196" d="M320.809,523.514l.856,1.08,1.311-.191,1.357.285h0l.931-1,1.248-.583h0l.26-1.328.554-1.216h0l-.679-1.207-.132-1.375h0l-1.252-.572-.931-1.07h0l-1.357.193h0l-1.331-.111h0l-.891,1.024-1.311.527h0l-.17,1.35-.647,1.214h0l.647,1.209.2,1.352h0l1.33.431Zm2.165-2.986h0Z" transform="translate(-302.939 -500.541)"/>
          <path id="Path_1197" data-name="Path 1197" d="M309.43,546.694h0a9.616,9.616,0,0,0-3.819,1.414l1.1,2.311,0,0h0l0,0,0,0,2.529.34A9.621,9.621,0,0,0,309.43,546.694Z" transform="translate(-295.059 -518.873)"/>
          <path id="Path_1198" data-name="Path 1198" d="M283.744,522.623h0c-.013-.026-.939-1.829-4.859-2.758l.032,2.742h0l-.052,2.742C282.82,524.44,283.744,522.623,283.744,522.623Z" transform="translate(-278.864 -502.68)"/>
          <path id="Path_1199" data-name="Path 1199" d="M295.781,531.652l-.476,2.515,1.854,1.775a9.638,9.638,0,0,0,2.542-3.187A9.623,9.623,0,0,0,295.781,531.652Z" transform="translate(-288.819 -509.796)"/>
          <path id="Path_1200" data-name="Path 1200" d="M290.146,496.458l0,0c0-.03.317-2.031-2.307-5.089l-1.587,2.237,0,0-1.655,2.187C288.33,497.384,290.146,496.458,290.146,496.458Z" transform="translate(-282.335 -485.518)"/>
          <path id="Path_1201" data-name="Path 1201" d="M299.765,514.472h0a9.621,9.621,0,0,0-2.522-3.2l-1.864,1.754h0l.458,2.518A9.619,9.619,0,0,0,299.765,514.472Z" transform="translate(-288.864 -497.499)"/>
          <path id="Path_1202" data-name="Path 1202" d="M311.583,481.979l.013.04.028-.031.045.01-.015-.045c.266-.32,1.348-1.858,1.044-5.413l-2.595.888h0l-2.532.768C309.4,481.258,311.18,481.875,311.583,481.979Z" transform="translate(-296.247 -476.54)"/>
          <path id="Path_1203" data-name="Path 1203" d="M309.408,496.877l-2.539.322-1.117,2.311a9.686,9.686,0,0,0,3.815,1.437A9.616,9.616,0,0,0,309.408,496.877Z" transform="translate(-295.144 -488.812)"/>
        </g>
      </g>
    </g>
  </g>
</svg>
