<svg xmlns="http://www.w3.org/2000/svg" width="358.068" height="60.616" viewBox="0 0 358.068 60.616">
  <g id="Group_108" data-name="Group 108" transform="translate(-406.43 -221.021)">
    <g id="Group_107" data-name="Group 107" transform="translate(500.686 238.013)">
      <path id="Path_768" data-name="Path 768" d="M562.575,513.233c-4.685,0-8.839-3.2-10.605-8.156l5.446-2.217c1.1,2.97,3.148,4.81,5.355,4.81,1.949,0,4.02-1.043,4.02-2.974,0-1.624-2.257-2.279-4.647-2.973l-.114-.034c-3.962-1.188-8.059-2.416-8.059-7.59,0-4.491,3.646-7.75,8.669-7.75,3.022,0,7.021,1.245,8.967,7.155l-5.506,1.2c-1.037-2.634-2.675-3.051-3.829-3.029-1.548.03-2.574.764-2.427,2.367s2.333,2.168,4.521,2.852c3.644,1.094,8.514,2.46,8.514,7.8C572.88,508.893,569.025,513.233,562.575,513.233Z" transform="translate(-551.97 -486.348)" fill="#fff"/>
      <path id="Path_769" data-name="Path 769" d="M636.171,514.2c-4.717-2.725-7.707-7.375-7.707-12.092a13.286,13.286,0,0,1,26.572,0c0,4.85-3.056,9.3-7.575,11.958l-3.452-4.982c2.922-1.661,4.982-4.251,4.982-6.976a7.24,7.24,0,0,0-14.48,0c0,2.79,2.126,5.515,5.181,7.11Z" transform="translate(-603.735 -488.023)" fill="#fff"/>
      <path id="Path_770" data-name="Path 770" d="M747.849,507.709c-2.725,4.716-7.376,7.706-12.092,7.706a13.286,13.286,0,0,1,0-26.572c4.85,0,9.3,3.056,11.958,7.575l-4.982,3.452c-1.661-2.922-4.251-4.982-6.976-4.982a7.24,7.24,0,0,0,0,14.48c2.79,0,5.515-2.126,7.11-5.181Z" transform="translate(-667.354 -488.037)" fill="#fff"/>
      <rect id="Rectangle_1121" data-name="Rectangle 1121" width="5.684" height="25.538" transform="translate(85.098 0.857)" fill="#fff"/>
      <path id="Path_771" data-name="Path 771" d="M849.637,506.711c-1.408-5.262-.234-10.665,3.1-14A13.286,13.286,0,0,1,871.527,511.5c-3.43,3.43-8.738,4.416-13.812,3.1l1.082-5.964c3.24.892,6.529.517,8.455-1.41a7.24,7.24,0,0,0-10.239-10.239c-1.973,1.973-2.4,5.4-1.364,8.691Z" transform="translate(-753.013 -488.032)" fill="#fff"/>
      <path id="Path_772" data-name="Path 772" d="M951.026,513.233c-4.685,0-8.839-3.2-10.605-8.156l5.446-2.217c1.1,2.97,3.148,4.81,5.356,4.81,1.949,0,4.02-1.043,4.02-2.974,0-1.624-2.258-2.279-4.647-2.973l-.114-.034c-3.962-1.188-8.059-2.416-8.059-7.59,0-4.491,3.646-7.75,8.669-7.75,3.022,0,7.022,1.245,8.967,7.155l-5.505,1.2c-1.037-2.634-2.675-3.051-3.828-3.029-1.548.03-2.574.764-2.427,2.367s2.333,2.168,4.521,2.852c3.644,1.094,8.514,2.46,8.514,7.8C961.331,508.893,957.476,513.233,951.026,513.233Z" transform="translate(-814.844 -486.348)" fill="#fff"/>
      <path id="Path_773" data-name="Path 773" d="M1038.682,507.709c-2.722,4.716-7.373,7.706-12.089,7.706a13.286,13.286,0,0,1,0-26.572c4.848,0,9.3,3.056,11.958,7.575l-4.985,3.452c-1.66-2.922-4.251-4.982-6.973-4.982a7.24,7.24,0,1,0,0,14.48c2.79,0,5.512-2.126,7.107-5.181Z" transform="translate(-864.169 -488.037)" fill="#fff"/>
      <path id="Path_774" data-name="Path 774" d="M1109,489.774c5.262-1.408,10.665-.234,14,3.1a13.286,13.286,0,0,1-18.789,18.789c-3.43-3.43-4.416-8.738-3.1-13.812l5.964,1.081c-.892,3.24-.517,6.528,1.41,8.455a7.24,7.24,0,0,0,10.239-10.239c-1.973-1.973-5.4-2.4-8.692-1.364Z" transform="translate(-923.206 -488.271)" fill="#fff"/>
      <path id="Path_775" data-name="Path 775" d="M1207.716,488.844c-.153,0-.305.014-.458.02l.007.02q-.327,0-.65.019a14.564,14.564,0,0,0-5.67,1.865,13.489,13.489,0,0,0-6.021,11.363v23.531h5.947V502.971a6.863,6.863,0,0,1-.057-.84v-.253a6.9,6.9,0,1,1,6.9,7.152,6.85,6.85,0,0,1-2.085-.325l-3.173,5.666a11.89,11.89,0,0,0,5.258,1.044A13.589,13.589,0,0,0,1221,502.131,13.325,13.325,0,0,0,1207.716,488.844Z" transform="translate(-987.073 -488.037)" fill="#fff"/>
      <path id="Path_776" data-name="Path 776" d="M1299.331,488.844c6.842,0,13.219,5.646,13.219,15.678h-20.195a7.341,7.341,0,0,0,6.911,4.848,8.781,8.781,0,0,0,5.512-1.992l3.652,4.651a14.749,14.749,0,0,1-9.164,3.387,13.286,13.286,0,0,1,.066-26.572Zm6.508,10.032a7.469,7.469,0,0,0-6.642-4.349,6.438,6.438,0,0,0-6.377,4.349Z" transform="translate(-1048.737 -488.037)" fill="#fff"/>
    </g>
    <g id="Group_221" data-name="Group 221" transform="translate(-225.297 -255.905)">
      <path id="Path_947" data-name="Path 947" d="M652.322,485.272c.046-.008,3.089-.5,6.268-5.747l-3.987-1.236v0l-3.947-1.358c-.536,6.154,1.665,8.343,1.665,8.343Z" transform="translate(17.09 0.008)" fill="#fff"/>
      <path id="Path_948" data-name="Path 948" d="M650.7,484.615,647.749,483l-.01,6.066A12.648,12.648,0,0,0,650.7,484.615Z" transform="translate(14.522 5.512)" fill="#fff"/>
      <path id="Path_949" data-name="Path 949" d="M649.135,489.07l.01-6.066-2.958,1.6A12.632,12.632,0,0,0,649.135,489.07Z" transform="translate(13.114 5.512)" fill="#fff"/>
      <path id="Path_950" data-name="Path 950" d="M657.546,489.4l0,0c.042.021,2.8,1.409,8.45-.961l-2.5-3.345,0,0-2.393-3.419C657.054,486.332,657.546,489.4,657.546,489.4Z" transform="translate(23.399 4.302)" fill="#fff"/>
      <path id="Path_951" data-name="Path 951" d="M656.652,487.928l-1.44-3.038-3.575,4.9A12.644,12.644,0,0,0,656.652,487.928Z" transform="translate(18.057 7.223)" fill="#fff"/>
      <path id="Path_952" data-name="Path 952" d="M651.735,490l3.577-4.9-3.335-.446A12.672,12.672,0,0,0,651.735,490Z" transform="translate(17.95 7.008)" fill="#fff"/>
      <path id="Path_953" data-name="Path 953" d="M654.04,491.667a12.648,12.648,0,0,0,5.151,1.445l.624-3.3Z" transform="translate(20.236 11.683)" fill="#fff"/>
      <path id="Path_954" data-name="Path 954" d="M657.377,488.586a12.63,12.63,0,0,0-3.339,4.18l5.774-1.861Z" transform="translate(20.235 10.575)" fill="#fff"/>
      <path id="Path_955" data-name="Path 955" d="M657.507,500.156l.006,0c-.007.044-.48,3.091,3.516,7.742l2.414-3.406,0,0,2.515-3.331C660.272,498.743,657.507,500.156,657.507,500.156Z" transform="translate(23.367 20.696)" fill="#fff"/>
      <path id="Path_956" data-name="Path 956" d="M657.346,499.083l2.447-2.307-5.765-1.892A12.639,12.639,0,0,0,657.346,499.083Z" transform="translate(20.225 16.287)" fill="#fff"/>
      <path id="Path_957" data-name="Path 957" d="M667.182,494.842l.076-4.174c-6.02,1.388-7.424,4.155-7.424,4.155h.006c.021.04,1.43,2.782,7.4,4.193l-.052-4.174Z" transform="translate(25.491 12.463)" fill="#fff"/>
      <path id="Path_958" data-name="Path 958" d="M659.19,494.136a12.644,12.644,0,0,0-5.16,1.417l5.765,1.892Z" transform="translate(20.227 15.608)" fill="#fff"/>
      <path id="Path_959" data-name="Path 959" d="M652.276,504.341l0,.006c-.032.032-2.206,2.22-1.709,8.331l3.955-1.335,0,0,3.993-1.215C655.342,504.825,652.276,504.341,652.276,504.341Z" transform="translate(17.021 24.863)" fill="#fff"/>
      <path id="Path_960" data-name="Path 960" d="M651.928,503.541l3.335-.427-3.549-4.92A12.631,12.631,0,0,0,651.928,503.541Z" transform="translate(17.922 19.288)" fill="#fff"/>
      <path id="Path_961" data-name="Path 961" d="M655.16,503.111l1.459-3.03a12.637,12.637,0,0,0-5.008-1.89Z" transform="translate(18.033 19.286)" fill="#fff"/>
      <path id="Path_962" data-name="Path 962" d="M646.928,504.319c-.044.008-3.089.5-6.281,5.732l3.984,1.245,0,0,3.943,1.367c.551-6.152-1.646-8.347-1.646-8.347Z" transform="translate(8.09 24.838)" fill="#fff"/>
      <path id="Path_963" data-name="Path 963" d="M649.116,499.447a12.631,12.631,0,0,0-2.973,4.449l2.948,1.617Z" transform="translate(13.074 20.425)" fill="#fff"/>
      <path id="Path_964" data-name="Path 964" d="M647.718,499.447l-.023,6.066,2.961-1.594A12.632,12.632,0,0,0,647.718,499.447Z" transform="translate(14.482 20.425)" fill="#fff"/>
      <path id="Path_965" data-name="Path 965" d="M641.927,500.09l-.006,0c-.04-.019-2.792-1.415-8.452.942l2.489,3.351,0,0,2.386,3.425C642.412,503.154,641.927,500.09,641.927,500.09Z" transform="translate(1.581 20.621)" fill="#fff"/>
      <path id="Path_966" data-name="Path 966" d="M641.174,500.013l1.434,3.042,3.587-4.891A12.639,12.639,0,0,0,641.174,500.013Z" transform="translate(8.568 19.26)" fill="#fff"/>
      <path id="Path_967" data-name="Path 967" d="M647.566,500.385l1.3,1.646,1.995-.288,2.065.437-1.957-6.056.008-.017,1.949,6.074,1.419-1.524,1.9-.885-5.219-3.808.006-.011,5.214,3.82.4-2.021.847-1.85-6.426-.04,0-.013,6.422.053-1.03-1.84-.2-2.094-5.135,3.717.006-.019,5.13-3.7-1.9-.873-1.415-1.63-2.04,6.335-.021.027v-.006l2.061-6.356-2.052.122-.011,3.137v-3.137l-2.027,0,2.018,6.238v.023l-.011-.015-2.006-6.245-1.36,1.556-2,.8,5.353,3.9.011.017-.017-.006-5.347-3.909-.261,2.054-.988,1.846,6.594.023.013,0-.006.008h0l-6.6-.034.982,1.842.305,2.058,5.3-3.839-.025.032-5.271,3.806,2.023.66Zm3.3-4.538Z" transform="translate(11.357 11.369)" fill="#fff"/>
      <path id="Path_968" data-name="Path 968" d="M645.517,498.166l-3.587,4.893,3.333.452A12.653,12.653,0,0,0,645.517,498.166Z" transform="translate(9.253 19.263)" fill="#fff"/>
      <path id="Path_969" data-name="Path 969" d="M639.16,494.759h-.006c-.021-.042-1.424-2.786-7.389-4.211l.042,4.174h0l-.084,4.172C637.749,497.522,639.16,494.759,639.16,494.759Z" transform="translate(0 12.354)" fill="#fff"/>
      <path id="Path_970" data-name="Path 970" d="M638.382,497.373l5.778-1.846a12.619,12.619,0,0,0-5.149-1.457Z" transform="translate(6.036 15.548)" fill="#fff"/>
      <path id="Path_971" data-name="Path 971" d="M644.163,494.839l-5.78,1.846,2.429,2.326A12.641,12.641,0,0,0,644.163,494.839Z" transform="translate(6.037 16.246)" fill="#fff"/>
      <path id="Path_972" data-name="Path 972" d="M641.993,489.337l-.006,0c.008-.046.486-3.091-3.5-7.752l-2.42,3.4,0,0-2.523,3.324C639.226,490.742,641.993,489.337,641.993,489.337Z" transform="translate(1.651 4.222)" fill="#fff"/>
      <path id="Path_973" data-name="Path 973" d="M640.865,488.527l-2.452,2.3,5.759,1.907A12.6,12.6,0,0,0,640.865,488.527Z" transform="translate(6.064 10.521)" fill="#fff"/>
      <path id="Path_974" data-name="Path 974" d="M638.411,489.739l.6,3.309a12.63,12.63,0,0,0,5.164-1.4Z" transform="translate(6.062 11.62)" fill="#fff"/>
      <path id="Path_975" data-name="Path 975" d="M646.888,485.2l.019.063.042-.048.071.015-.023-.069c.406-.486,2.056-2.826,1.6-8.238l-3.951,1.346h0l-3.854,1.163C643.571,484.1,646.274,485.044,646.888,485.2Z" transform="translate(8.222 0)" fill="#fff"/>
      <path id="Path_976" data-name="Path 976" d="M645.345,484.625l-3.337.418,3.537,4.929A12.655,12.655,0,0,0,645.345,484.625Z" transform="translate(9.324 6.982)" fill="#fff"/>
      <path id="Path_977" data-name="Path 977" d="M642.7,484.847l-1.465,3.028a12.636,12.636,0,0,0,5,1.9Z" transform="translate(8.624 7.184)" fill="#fff"/>
    </g>
  </g>
</svg>
