<svg xmlns="http://www.w3.org/2000/svg" width="210.329" height="30.181" viewBox="0 0 210.329 30.181"><defs><style>.a{fill:#fff;}</style></defs><g transform="translate(-43 -28.91)"><path class="a" d="M565.477,503.372c-3.758,0-7.09-2.565-8.507-6.542l4.369-1.778c.885,2.382,2.526,3.859,4.3,3.859,1.563,0,3.225-.836,3.225-2.386,0-1.3-1.811-1.828-3.728-2.385l-.092-.027c-3.178-.953-6.465-1.938-6.465-6.089,0-3.6,2.924-6.217,6.954-6.217,2.424,0,5.633,1,7.193,5.74l-4.417.964c-.832-2.113-2.146-2.448-3.071-2.43-1.241.024-2.065.613-1.947,1.9s1.872,1.739,3.627,2.288c2.923.878,6.83,1.973,6.83,6.257C573.743,499.89,570.651,503.372,565.477,503.372Z" transform="translate(-513.97 -452.897)"/><path class="a" d="M637.646,504.636c-3.784-2.186-6.182-5.916-6.182-9.7a10.658,10.658,0,0,1,21.316,0c0,3.891-2.451,7.461-6.077,9.592l-2.769-4c2.344-1.332,4-3.41,4-5.6a5.808,5.808,0,0,0-11.616,0c0,2.238,1.705,4.424,4.156,5.7Z" transform="translate(-569.146 -454.729)"/><path class="a" d="M742.83,499.434c-2.186,3.783-5.917,6.182-9.7,6.182a10.657,10.657,0,0,1,0-21.315c3.891,0,7.461,2.451,9.592,6.076l-4,2.769c-1.332-2.344-3.41-4-5.6-4a5.808,5.808,0,0,0,0,11.615c2.238,0,4.424-1.705,5.7-4.156Z" transform="translate(-636.554 -454.745)"/><rect class="a" width="4.441" height="20.226" transform="translate(110.027 30.236)"/><path class="a" d="M849.521,498.633c-1.13-4.221-.188-8.554,2.487-11.23a10.657,10.657,0,0,1,15.072,15.072c-2.751,2.751-7.009,3.543-11.08,2.486l.868-4.784c2.6.715,5.237.414,6.783-1.131a5.808,5.808,0,0,0-8.213-8.213c-1.583,1.583-1.923,4.334-1.094,6.972Z" transform="translate(-730.307 -454.74)"/><path class="a" d="M947.928,503.372c-3.758,0-7.09-2.565-8.507-6.542l4.369-1.778c.885,2.382,2.526,3.859,4.3,3.859,1.563,0,3.224-.836,3.224-2.386,0-1.3-1.811-1.828-3.728-2.385l-.092-.027c-3.179-.953-6.465-1.938-6.465-6.089,0-3.6,2.925-6.217,6.954-6.217,2.424,0,5.633,1,7.193,5.74l-4.416.964c-.832-2.113-2.146-2.448-3.071-2.43-1.241.024-2.065.613-1.947,1.9s1.872,1.739,3.627,2.288c2.923.878,6.83,1.973,6.83,6.257C956.195,499.89,953.1,503.372,947.928,503.372Z" transform="translate(-797.241 -452.897)"/><path class="a" d="M1033.662,499.434c-2.183,3.783-5.914,6.182-9.7,6.182a10.657,10.657,0,0,1,0-21.315c3.888,0,7.459,2.451,9.592,6.076l-4,2.769c-1.332-2.344-3.41-4-5.594-4a5.808,5.808,0,1,0,0,11.615c2.238,0,4.422-1.705,5.7-4.156Z" transform="translate(-851.967 -454.745)"/><path class="a" d="M1107.327,485.116c4.221-1.13,8.555-.188,11.23,2.487a10.657,10.657,0,0,1-15.072,15.072c-2.751-2.751-3.543-7.009-2.486-11.079l4.784.867c-.715,2.6-.414,5.237,1.131,6.783a5.808,5.808,0,0,0,8.214-8.213c-1.583-1.583-4.334-1.923-6.972-1.094Z" transform="translate(-916.584 -455.001)"/><path class="a" d="M1203.185,484.3c-.123,0-.245.011-.367.016l.006.016q-.262,0-.521.015a11.686,11.686,0,0,0-4.548,1.5,10.821,10.821,0,0,0-4.83,9.115v18.876h4.77v-18.2a5.48,5.48,0,0,1-.046-.674v-.2a5.538,5.538,0,1,1,5.537,5.737,5.5,5.5,0,0,1-1.673-.261l-2.545,4.545a9.535,9.535,0,0,0,4.218.838,10.9,10.9,0,0,0,10.656-10.656A10.689,10.689,0,0,0,1203.185,484.3Z" transform="translate(-985.004 -454.745)"/><path class="a" d="M1296.7,484.3c5.488,0,10.6,4.529,10.6,12.576h-16.2a5.888,5.888,0,0,0,5.544,3.888,7.043,7.043,0,0,0,4.422-1.6l2.93,3.73a11.834,11.834,0,0,1-7.351,2.717,10.657,10.657,0,0,1,.053-21.315Zm5.593,8.459a6.431,6.431,0,0,0-5.708-4.149c-2.226,0-4.394,1.073-5.48,4.149Z" transform="translate(-1053.978 -454.745)"/></g></svg>