<svg xmlns="http://www.w3.org/2000/svg" width="287.47" height="40" viewBox="0 0 287.47 40">
  <g id="Group_528" data-name="Group 528" transform="translate(-1160.292 -1982.242)">
    <g id="Group_527" data-name="Group 527">
      <g id="Group_526" data-name="Group 526">
        <g id="Group_222" data-name="Group 222" transform="translate(1115.457 1941)">
          <g id="Group_210" data-name="Group 210" transform="translate(115.429 43.667)">
            <path id="Union_17" data-name="Union 17" d="M-10245.77-2338.052v-19.421a11.132,11.132,0,0,1,4.972-9.376,12,12,0,0,1,4.677-1.54c.178-.01.358-.016.536-.016l-.006-.016c.126-.005.251-.018.379-.018a11,11,0,0,1,10.963,10.965,11.215,11.215,0,0,1-10.963,10.965,9.805,9.805,0,0,1-4.339-.863l2.619-4.676a5.606,5.606,0,0,0,1.72.269,5.708,5.708,0,0,0,5.7-5.7,5.711,5.711,0,0,0-5.7-5.7,5.739,5.739,0,0,0-5.7,5.489v.207a5.63,5.63,0,0,0,.047.7v18.726Zm24.7-19.189a11.009,11.009,0,0,1,11.007-11.007,11.008,11.008,0,0,1,11.008,11.007,10.906,10.906,0,0,1-.223,2.2h-16.979a6.575,6.575,0,0,0,6.194,4.381,6.731,6.731,0,0,0,4.85-2.1l2.569,3.644a11.006,11.006,0,0,1-7.419,2.881A11.009,11.009,0,0,1-10221.067-2357.24Zm4.813-2.2h12.393a6.584,6.584,0,0,0-6.2-4.381A6.576,6.576,0,0,0-10216.255-2359.441Zm-78.973,2.042a11.034,11.034,0,0,1,10.963-11.039c4,0,7.675,2.541,9.868,6.292l-4.112,2.87c-1.369-2.428-3.508-4.14-5.756-4.14a6.009,6.009,0,0,0-5.973,6.017,6.006,6.006,0,0,0,5.973,6.012c2.3,0,4.551-1.767,5.868-4.305l4.109,2.925c-2.248,3.918-6.085,6.4-9.978,6.4A11.031,11.031,0,0,1-10295.228-2357.4Zm-76.742,0a11.036,11.036,0,0,1,10.963-11.039c4,0,7.677,2.541,9.87,6.292l-4.111,2.87c-1.37-2.428-3.508-4.14-5.759-4.14a6.011,6.011,0,0,0-5.973,6.017,6.008,6.008,0,0,0,5.973,6.012c2.306,0,4.551-1.767,5.868-4.305l4.112,2.925c-2.248,3.918-6.088,6.4-9.98,6.4A11.033,11.033,0,0,1-10371.97-2357.4Zm55.975,4.19,4.493-1.83c.913,2.449,2.6,3.97,4.423,3.97,1.605,0,3.314-.86,3.314-2.457,0-1.338-1.86-1.879-3.834-2.452l-.095-.029c-3.27-.98-6.649-1.994-6.649-6.265,0-3.7,3.009-6.4,7.154-6.4,2.493,0,5.795,1.027,7.4,5.905l-4.546.993c-.854-2.175-2.206-2.517-3.158-2.5-1.277.023-2.125.63-2,1.953s1.927,1.791,3.73,2.355c3.009.9,7.026,2.029,7.026,6.436,0,3.463-3.179,7.047-8.5,7.047C-10311.109-2346.479-10314.536-2349.119-10316-2353.209Zm-99.434,0,4.5-1.83c.907,2.449,2.6,3.97,4.417,3.97,1.61,0,3.317-.86,3.317-2.457,0-1.338-1.861-1.879-3.835-2.452l-.094-.029c-3.27-.98-6.652-1.994-6.652-6.265,0-3.7,3.009-6.4,7.154-6.4,2.5,0,5.795,1.027,7.4,5.905l-4.545.993c-.855-2.175-2.209-2.517-3.158-2.5-1.278.023-2.125.63-2,1.953s1.924,1.791,3.73,2.355c3.009.9,7.026,2.029,7.026,6.436,0,3.463-3.182,7.047-8.5,7.047C-10410.543-2346.479-10413.97-2349.119-10415.429-2353.209Zm147.574,3.492c-2.831-2.849-3.633-7.275-2.527-11.509l4.933.886c-.745,2.705-.444,5.445,1.145,7.047a5.978,5.978,0,0,0,8.478-.029,6.076,6.076,0,0,0,.028-8.534c-1.631-1.642-4.467-1.987-7.193-1.116l-.839-5.011c4.359-1.187,8.829-.222,11.582,2.551a11.162,11.162,0,0,1-.05,15.663,11,11,0,0,1-7.825,3.256A10.856,10.856,0,0,1-10267.854-2349.717Zm-63.764,2.6.881-4.932c2.685.745,5.405.442,7-1.147a6.009,6.009,0,0,0-.031-8.477,6.006,6.006,0,0,0-8.475-.026c-1.628,1.628-1.971,4.467-1.105,7.194l-4.977.839c-1.179-4.363-.223-8.832,2.53-11.585a11.037,11.037,0,0,1,15.556.05,11.035,11.035,0,0,1,.052,15.558,10.882,10.882,0,0,1-7.8,3.005A14.292,14.292,0,0,1-10331.618-2347.122Zm-15.289-.047v-20.81h4.569v20.81Zm-49.152-10.3a11.034,11.034,0,0,1,11.036-10.965,11.036,11.036,0,0,1,11.036,10.965c0,4-2.541,7.675-6.292,9.868l-2.87-4.112c2.429-1.37,4.141-3.508,4.141-5.756a6.009,6.009,0,0,0-6.015-5.975,6.008,6.008,0,0,0-6.015,5.975c0,2.3,1.767,4.551,4.3,5.868l-2.925,4.109C-10393.576-2349.743-10396.06-2353.583-10396.06-2357.473Z" transform="translate(10415.429 2372.873)" fill="#fff" stroke="rgba(0,0,0,0)" stroke-width="1"/>
          </g>
        </g>
        <g id="Group_519" data-name="Group 519" transform="translate(839.428 1667.702)">
          <g id="Group_518" data-name="Group 518" transform="translate(320.864 314.54)">
            <g id="Group_517" data-name="Group 517" transform="translate(0)">
              <path id="Path_1183" data-name="Path 1183" d="M339.783,482.016c.03,0,2.029-.335,4.112-3.782l-2.621-.808v0l-2.6-.888c-.345,4.044,1.1,5.48,1.1,5.48Z" transform="translate(-315.049 -476.54)" fill="#fff"/>
              <path id="Path_1184" data-name="Path 1184" d="M326.2,490.891l-2.249,1.222a9.618,9.618,0,0,0,2.249,3.4,9.683,9.683,0,0,0,2.257-3.4Z" transform="translate(-306.165 -485.229)" fill="#fff"/>
              <path id="Path_1185" data-name="Path 1185" d="M360.767,496.613l0,0c.026.013,1.837.922,5.55-.64l-1.644-2.2h0l-1.576-2.244C360.441,494.6,360.767,496.613,360.767,496.613Z" transform="translate(-328.449 -485.618)" fill="#fff"/>
              <path id="Path_1186" data-name="Path 1186" d="M346.479,497.275l-2.544-.339a9.681,9.681,0,0,0-.172,4.073,9.618,9.618,0,0,0,3.816-1.423Z" transform="translate(-318.059 -488.848)" fill="#fff"/>
              <path id="Path_1187" data-name="Path 1187" d="M355.412,511.38a9.614,9.614,0,0,0-2.537,3.186,9.684,9.684,0,0,0,3.925,1.1l.467-2.523Z" transform="translate(-323.678 -497.563)" fill="#fff"/>
              <path id="Path_1188" data-name="Path 1188" d="M360.725,549.214l0,0c0,.029-.312,2.032,2.319,5.083l1.582-2.24,0,0,1.649-2.191C362.54,548.283,360.725,549.214,360.725,549.214Z" transform="translate(-328.425 -520.193)" fill="#fff"/>
              <path id="Path_1189" data-name="Path 1189" d="M372.944,522.831l.045-2.742c-3.953.917-4.873,2.737-4.873,2.737h0c.013.027.943,1.827,4.865,2.747l-.038-2.742Z" transform="translate(-332.906 -502.815)" fill="#fff"/>
              <path id="Path_1190" data-name="Path 1190" d="M357.252,534.33h0l-.464-2.517a9.614,9.614,0,0,0-3.925,1.084h0a9.617,9.617,0,0,0,2.529,3.192l1.86-1.758Z" transform="translate(-323.67 -509.893)" fill="#fff"/>
              <path id="Path_1191" data-name="Path 1191" d="M339.7,563.573v0c-.021.021-1.447,1.46-1.114,5.475l2.6-.881v0l2.622-.8C341.711,563.888,339.7,563.573,339.7,563.573Z" transform="translate(-314.993 -529.052)" fill="#fff"/>
              <path id="Path_1192" data-name="Path 1192" d="M346.419,550.493l1.105-2.309a9.619,9.619,0,0,0-3.812-1.432h0a9.618,9.618,0,0,0,.168,4.068l2.538-.328h0Z" transform="translate(-318.026 -518.909)" fill="#fff"/>
              <path id="Path_1193" data-name="Path 1193" d="M311.376,563.523c-.029,0-2.029.33-4.121,3.772l2.619.815v0l2.593.894c.355-4.043-1.09-5.482-1.09-5.482Z" transform="translate(-296.055 -529.019)" fill="#fff"/>
              <path id="Path_1194" data-name="Path 1194" d="M326.15,551.383a9.614,9.614,0,0,0-2.257,3.39L326.139,556l2.26-1.217A9.685,9.685,0,0,0,326.15,551.383Z" transform="translate(-306.129 -521.671)" fill="#fff"/>
              <path id="Path_1195" data-name="Path 1195" d="M289.982,549.067l0,0c-.026-.014-1.835-.927-5.552.627l1.639,2.2,0,0,1.571,2.248C290.3,551.081,289.982,549.067,289.982,549.067Z" transform="translate(-282.232 -520.101)" fill="#fff"/>
              <path id="Path_1196" data-name="Path 1196" d="M320.809,523.514l.856,1.08,1.311-.191,1.357.285h0l.931-1,1.248-.583h0l.26-1.328.554-1.216h0l-.679-1.207-.132-1.375h0l-1.252-.572-.931-1.07h0l-1.357.193h0l-1.331-.111h0l-.891,1.024-1.311.527h0l-.17,1.35-.647,1.214h0l.647,1.209.2,1.352h0l1.33.431Zm2.165-2.986h0Z" transform="translate(-302.939 -500.541)" fill="#fff"/>
              <path id="Path_1197" data-name="Path 1197" d="M309.43,546.694h0a9.616,9.616,0,0,0-3.819,1.414l1.1,2.311,0,0h0l0,0,0,0,2.529.34A9.621,9.621,0,0,0,309.43,546.694Z" transform="translate(-295.059 -518.873)" fill="#fff"/>
              <path id="Path_1198" data-name="Path 1198" d="M283.744,522.623h0c-.013-.026-.939-1.829-4.859-2.758l.032,2.742h0l-.052,2.742C282.82,524.44,283.744,522.623,283.744,522.623Z" transform="translate(-278.864 -502.68)" fill="#fff"/>
              <path id="Path_1199" data-name="Path 1199" d="M295.781,531.652l-.476,2.515,1.854,1.775a9.638,9.638,0,0,0,2.542-3.187A9.623,9.623,0,0,0,295.781,531.652Z" transform="translate(-288.819 -509.796)" fill="#fff"/>
              <path id="Path_1200" data-name="Path 1200" d="M290.146,496.458l0,0c0-.03.317-2.031-2.307-5.089l-1.587,2.237,0,0-1.655,2.187C288.33,497.384,290.146,496.458,290.146,496.458Z" transform="translate(-282.335 -485.518)" fill="#fff"/>
              <path id="Path_1201" data-name="Path 1201" d="M299.765,514.472h0a9.621,9.621,0,0,0-2.522-3.2l-1.864,1.754h0l.458,2.518A9.619,9.619,0,0,0,299.765,514.472Z" transform="translate(-288.864 -497.499)" fill="#fff"/>
              <path id="Path_1202" data-name="Path 1202" d="M311.583,481.979l.013.04.028-.031.045.01-.015-.045c.266-.32,1.348-1.858,1.044-5.413l-2.595.888h0l-2.532.768C309.4,481.258,311.18,481.875,311.583,481.979Z" transform="translate(-296.247 -476.54)" fill="#fff"/>
              <path id="Path_1203" data-name="Path 1203" d="M309.408,496.877l-2.539.322-1.117,2.311a9.686,9.686,0,0,0,3.815,1.437A9.616,9.616,0,0,0,309.408,496.877Z" transform="translate(-295.144 -488.812)" fill="#fff"/>
            </g>
          </g>
        </g>
      </g>
    </g>
  </g>
</svg>
