<?xml version="1.0" standalone="no"?>
<!DOCTYPE svg PUBLIC "-//W3C//DTD SVG 20010904//EN"
 "http://www.w3.org/TR/2001/REC-SVG-20010904/DTD/svg10.dtd">
<svg version="1.0" xmlns="http://www.w3.org/2000/svg"
 width="500.000000pt" height="500.000000pt" viewBox="0 0 500.000000 500.000000"
 preserveAspectRatio="xMidYMid meet">

<g transform="translate(0.000000,500.000000) scale(0.100000,-0.100000)"
fill="#000000" stroke="none">
<path d="M1726 4854 c-32 -32 -18 -54 136 -213 291 -297 445 -456 503 -518
l58 -62 -889 -3 -889 -3 -68 -33 c-125 -62 -209 -174 -228 -306 -11 -80 -11
-2323 0 -2403 23 -154 119 -271 271 -329 38 -15 98 -18 372 -23 l327 -6 -109
-189 c-61 -103 -110 -193 -111 -200 -5 -45 25 -71 65 -56 11 4 73 100 146 226
l127 219 1109 3 1109 2 126 -217 c69 -119 135 -223 145 -230 25 -16 68 3 72
33 2 12 -43 100 -108 212 -60 105 -110 193 -110 196 0 3 127 6 283 6 155 0
311 5 346 11 136 22 246 103 304 226 l32 68 0 1250 0 1250 -28 57 c-43 88
-107 152 -195 195 l-76 38 -886 5 -887 5 353 364 c194 201 355 372 357 382 7
26 -20 59 -48 59 -18 0 -112 -91 -402 -390 -208 -214 -381 -390 -385 -390 -4
0 -177 176 -385 390 -388 401 -400 411 -437 374z m2749 -924 c63 -31 115 -83
146 -146 l24 -49 0 -1225 0 -1225 -27 -51 c-15 -28 -48 -70 -73 -92 -89 -78
80 -73 -2015 -70 l-1875 3 -41 22 c-67 36 -101 70 -133 135 l-31 61 0 1216 c1
990 3 1223 14 1254 29 79 101 148 189 179 49 17 146 17 1912 15 l1860 -2 50
-25z"/>
<path d="M1022 3709 c-123 -21 -235 -107 -294 -227 l-33 -67 0 -905 0 -905 28
-56 c54 -110 148 -192 258 -223 50 -15 179 -16 1250 -14 l1194 3 65 32 c123
61 208 174 230 304 14 87 14 1631 -1 1719 -14 92 -50 162 -113 226 -64 63
-134 99 -226 113 -80 13 -2280 13 -2358 0z m2410 -119 c70 -26 142 -99 168
-168 19 -51 20 -79 20 -916 l0 -863 -30 -61 c-35 -68 -82 -115 -149 -146 -46
-21 -47 -21 -1236 -21 l-1190 0 -49 24 c-63 31 -116 84 -147 147 l-24 49 0
880 0 880 27 51 c33 62 104 127 161 148 36 12 207 15 1219 15 1150 1 1179 1
1230 -19z"/>
<path d="M2952 3297 c-36 -38 -28 -89 17 -111 14 -7 51 -19 81 -26 30 -7 59
-15 63 -17 9 -6 -23 -28 -166 -119 l-87 -56 -55 36 c-89 60 -175 87 -290 93
-125 7 -192 -6 -295 -58 -146 -73 -248 -191 -295 -341 -31 -98 -32 -156 -4
-192 40 -51 139 -22 139 41 0 34 40 154 65 192 87 138 267 220 422 192 133
-25 247 -113 306 -239 26 -54 32 -82 35 -149 8 -180 -74 -320 -232 -394 -120
-56 -214 -60 -332 -13 -33 13 -74 24 -91 24 -56 0 -91 -67 -62 -121 13 -25
115 -72 188 -88 74 -16 193 -14 264 5 356 92 539 489 377 819 -16 33 -26 63
-22 67 28 27 222 145 222 135 0 -6 -7 -37 -15 -67 -8 -30 -15 -63 -15 -73 0
-26 45 -67 75 -67 51 0 69 34 114 217 24 94 41 181 39 193 -5 39 -47 58 -208
100 -182 47 -208 49 -238 17z"/>
<path d="M1685 3245 c-150 -43 -298 -157 -362 -280 -102 -195 -95 -420 19
-596 65 -102 156 -178 266 -225 2 -1 -7 -41 -19 -89 -22 -87 -22 -87 -50 -81
-16 3 -42 9 -59 12 -24 5 -35 1 -61 -25 -25 -26 -30 -37 -24 -59 10 -40 22
-51 82 -68 44 -13 53 -19 48 -32 -4 -10 -9 -40 -12 -69 -5 -46 -3 -54 20 -77
56 -56 124 -22 147 73 8 36 16 51 25 47 31 -12 87 -18 110 -12 29 7 59 59 50
86 -9 29 -51 58 -95 65 -22 4 -40 9 -40 11 0 3 10 43 21 89 l21 85 67 0 c303
0 571 262 571 558 0 53 -4 67 -25 87 -29 30 -70 32 -104 6 -20 -15 -26 -34
-37 -106 -17 -117 -57 -197 -132 -266 -80 -73 -146 -101 -253 -107 -63 -3
-102 0 -144 13 -305 88 -400 483 -167 696 112 102 250 141 377 104 103 -30
133 -30 161 -4 53 50 20 123 -71 154 -68 24 -262 30 -330 10z"/>
<path d="M3827 3502 c-15 -16 -17 -46 -17 -211 0 -113 4 -200 10 -212 10 -18
25 -19 365 -19 l354 0 15 22 c13 18 16 56 16 210 0 175 -1 189 -20 208 -19 19
-33 20 -363 20 -320 0 -345 -1 -360 -18z m633 -212 l0 -130 -275 0 -275 0 0
130 0 130 275 0 275 0 0 -130z"/>
<path d="M3840 2927 c-34 -17 -39 -60 -8 -81 19 -14 67 -16 360 -16 327 0 339
1 359 21 20 20 19 51 -3 74 -15 16 -677 18 -708 2z"/>
<path d="M3826 2694 c-19 -18 -20 -38 -6 -65 10 -18 25 -19 365 -19 l355 0 16
25 c15 23 15 27 0 50 l-16 25 -350 0 c-304 0 -351 -2 -364 -16z"/>
<path d="M3832 2474 c-12 -8 -22 -26 -22 -39 0 -53 15 -55 380 -55 366 0 373
1 373 55 0 54 -7 55 -373 55 -287 0 -339 -2 -358 -16z"/>
<path d="M4085 2247 c-111 -37 -191 -106 -238 -205 -94 -199 3 -434 210 -512
48 -18 73 -21 148 -18 76 4 99 9 150 35 71 36 148 115 177 180 83 188 -3 415
-190 501 -68 31 -192 40 -257 19z m217 -115 c52 -23 109 -78 134 -130 26 -54
30 -149 9 -213 -22 -67 -95 -140 -160 -162 l-45 -16 0 143 c0 145 -5 166 -41
179 -9 3 -26 -1 -38 -9 -20 -14 -21 -24 -21 -160 0 -138 -1 -144 -20 -144 -36
0 -96 37 -139 86 -101 115 -88 287 31 388 77 67 192 82 290 38z"/>
</g>
</svg>
