<svg xmlns="http://www.w3.org/2000/svg" width="18" height="18" viewBox="0 0 18 18"><defs><style>.a{fill:#858585;}</style></defs><path class="a" d="M1.35-9a8.988,8.988,0,0,0,9,9,8.988,8.988,0,0,0,9-9,8.988,8.988,0,0,0-9-9A8.988,8.988,0,0,0,1.35-9ZM16.56-9a6.178,6.178,0,0,1-6.21,6.18,5.557,5.557,0,0,1-3.21-.87c2.97-3.12,5.46-5.67,8.4-8.76A6.738,6.738,0,0,1,16.56-9ZM4.17-9a6.171,6.171,0,0,1,6.18-6.18,6.524,6.524,0,0,1,3.06.78L5.16-5.64A6.21,6.21,0,0,1,4.17-9Z" transform="translate(-1.35 18)"/></svg>