<svg xmlns="http://www.w3.org/2000/svg" width="28.632" height="22.256" viewBox="0 0 28.632 22.256"><defs><style>.a{fill:#2f7cff;}</style></defs><g transform="translate(-635.359 -316.36)"><path class="a" d="M662.985,318.224h-4.894a3.016,3.016,0,0,0-5.575,0h-16.15a1.168,1.168,0,0,0,0,2.313h16.151a3.017,3.017,0,0,0,5.572,0h4.9a1.168,1.168,0,0,0,0-2.313Zm-7.681,2.52a1.378,1.378,0,1,1,.715-.207A1.352,1.352,0,0,1,655.3,320.744Z" transform="translate(-0.001)"/><path class="a" d="M662.984,343.27h-17.67a3.018,3.018,0,0,0-5.557,0h-3.391a1.168,1.168,0,0,0,0,2.313h3.375a3.015,3.015,0,0,0,5.588,0h17.655a1.168,1.168,0,0,0,0-2.313Zm-20.449,2.543a1.368,1.368,0,1,1,.757-.23A1.357,1.357,0,0,1,642.535,345.813Z" transform="translate(0 -16.786)"/><path class="a" d="M662.984,367.284H652.976a3.017,3.017,0,0,0-5.55,0h-11.06a1.168,1.168,0,0,0,0,2.313H647.4a3.015,3.015,0,0,0,5.594,0h9.986a1.168,1.168,0,0,0,0-2.313Zm-12.783,2.55a1.368,1.368,0,1,1,.768-.237A1.357,1.357,0,0,1,650.2,369.835Z" transform="translate(0 -32.87)"/></g></svg>