<svg xmlns="http://www.w3.org/2000/svg" width="14.551" height="18" viewBox="0 0 14.551 18"><defs><style>.a{fill:#858585;}</style></defs><path class="a" d="M1.35,0H4.47L15.9-18H12.87ZM2.49-14.61a3.393,3.393,0,0,0,3.36,3.36,3.4,3.4,0,0,0,3.39-3.36A3.406,3.406,0,0,0,5.85-18,3.4,3.4,0,0,0,2.49-14.61Zm2.67,0a.7.7,0,0,1,.69-.72.73.73,0,0,1,.72.72.7.7,0,0,1-.72.69A.679.679,0,0,1,5.16-14.61ZM7.83-3.36A3.4,3.4,0,0,0,11.22,0a3.393,3.393,0,0,0,3.36-3.36,3.4,3.4,0,0,0-3.36-3.39A3.406,3.406,0,0,0,7.83-3.36Zm2.67,0a.711.711,0,0,1,.72-.72.725.725,0,0,1,.69.72.7.7,0,0,1-.69.69A.686.686,0,0,1,10.5-3.36Z" transform="translate(-1.35 18)"/></svg>