<svg xmlns="http://www.w3.org/2000/svg" width="53.771" height="45.701" viewBox="0 0 53.771 45.701"><g transform="translate(-78 -394.5)"><circle cx="2.246" cy="2.246" r="2.246" transform="translate(87.446 411.472)"/><circle cx="2.246" cy="2.246" r="2.246" transform="translate(107.594 411.472)"/><path d="M40.825,55.839a6.436,6.436,0,0,0-6.143,6.739,1.058,1.058,0,0,0,2.114,0,4.442,4.442,0,0,1,4.029-4.624c2.378-.066,4.162,2.246,4.162,4.491a1.057,1.057,0,0,0,2.114,0A6.431,6.431,0,0,0,40.825,55.839Z" transform="translate(59.04 366.132)"/><path d="M62.658,34.99h-.33V24.624a6.485,6.485,0,0,0-6.474-6.474H19.588a6.485,6.485,0,0,0-6.474,6.474V57.377a6.485,6.485,0,0,0,6.474,6.474H55.854a6.485,6.485,0,0,0,6.474-6.474V49.722h.33c3.171,0,4.228-4.162,4.228-7.333C66.885,39.152,65.829,34.99,62.658,34.99ZM19.588,20.462H55.854a4.1,4.1,0,0,1,4.1,3.765,6.324,6.324,0,0,0-4.1-1.453H19.588a6.455,6.455,0,0,0-4.1,1.453A4.151,4.151,0,0,1,19.588,20.462ZM60.016,54.874v2.437a4.117,4.117,0,0,1-4.1,4.1H19.588a4.116,4.116,0,0,1-4.1-4.1V27.663c0-.727,1.849-2.577,4.1-2.577H55.854a4.117,4.117,0,0,1,4.1,4.1v5.743H58.628c-3.171,0-4.228,4.161-4.228,7.332s.991,7.333,4.228,7.333h1.321v5.285Zm2.642-7.6H58.694c-1.916,0-1.85-3.1-1.85-4.954,0-1.916,0-4.954,1.85-4.954h3.964c1.916,0,1.849,3.105,1.849,4.954S64.573,47.277,62.658,47.277Z" transform="translate(64.886 376.349)"/></g></svg>