<svg xmlns="http://www.w3.org/2000/svg" data-name="Group 122" width="45" height="45"><rect id="backgroundrect" width="100%" height="100%" x="0" y="0" fill="none" stroke="none" class="" style=""/>
  
  
  
  
  
  
<g class="currentLayer" style=""><title>Layer 1</title><path id="Path_831" data-name="Path 831" d="M71,10 H95 V34 H71 z" fill="none"/><path id="Path_832" data-name="Path 832" d="M29.24390411376953,26.486504064798353 a2.912,2.912 0 0 0 -1.96,0.77 L20.153904113769528,23.106504064798354 A3.274,3.274 0 0 0 20.24390411376953,22.406504064798355 a3.274,3.274 0 0 0 -0.09000000000000004,-0.7000000000000002 l7.05,-4.11 A2.993,2.993 0 1 0 26.24390411376953,15.406504064798355 a3.274,3.274 0 0 0 0.09000000000000004,0.7000000000000002 L19.283904113769523,20.216504064798357 a3,3 0 1 0 0,4.38 l7.12,4.16 a2.821,2.821 0 0 0 -0.08000000000000003,0.6500000000000002 A2.92,2.92 0 1 0 29.24390411376953,26.486504064798353 z" fill="#2f7cff" class=""/><g id="Ellipse_36" data-name="Ellipse 36" fill="none" stroke="#2f7cff" stroke-width="3" class="">
    <circle cx="22.711381524801254" cy="22.5" r="22.5" stroke="none" id="svg_1"/>
    <circle cx="22.711381524801254" cy="22.5" r="21" fill="none" id="svg_2"/>
  </g></g></svg>