<svg xmlns="http://www.w3.org/2000/svg" data-name="Group 122" width="45" height="45" style=""><rect id="backgroundrect" width="100%" height="100%" x="0" y="0" fill="none" stroke="none" class="" style=""/>
  
  
  
  
  
  
<g class="currentLayer" style=""><title>Layer 1</title><path id="Path_831" data-name="Path 831" d="M71,10 H95 V34 H71 z" fill="none" class=""/><path id="Path_832" data-name="Path 832" d="M29.39215686917305,26.864313678741453 a2.912,2.912 0 0 0 -1.96,0.77 L20.302156869173047,23.484313678741454 A3.274,3.274 0 0 0 20.39215686917305,22.784313678741455 a3.274,3.274 0 0 0 -0.09000000000000007,-0.7000000000000003 l7.05,-4.11 A2.993,2.993 0 1 0 26.39215686917305,15.784313678741455 a3.274,3.274 0 0 0 0.09000000000000007,0.7000000000000003 L19.432156869173042,20.594313678741457 a3,3 0 1 0 0,4.38 l7.12,4.16 a2.821,2.821 0 0 0 -0.08000000000000004,0.6500000000000004 A2.92,2.92 0 1 0 29.39215686917305,26.864313678741453 z" fill="#d146fc" class=""/><g id="Ellipse_36" data-name="Ellipse 36" fill="none" stroke="#d146fc" stroke-width="3" class="">
    <circle cx="23.715685158967972" cy="22.10784202814102" r="22.5" stroke="none" id="svg_1"/>
    <circle cx="23.715685158967972" cy="22.10784202814102" r="21" fill="none" id="svg_2"/>
  </g></g></svg>