<svg xmlns="http://www.w3.org/2000/svg" viewBox="0 0 987.72 816.24"><defs><style>.cls-1{fill:#ffefd8;}</style></defs><g id="Layer_2" data-name="Layer 2"><g id="Layer_1-2" data-name="Layer 1"><path class="cls-1" d="M783.83,330.38H728a329.08,329.08,0,0,1-79.6,99.56c-57.59,48.95-127.65,75.91-197.27,75.91H311.24a272.64,272.64,0,0,0-21.39,67.46c-23.66,134.17,65.93,242.93,200.09,242.93H941.09l42.84-242.93C1007.59,439.14,918,330.38,783.83,330.38ZM954.39,568.1,915.92,786.24h-426c-55.17,0-103.17-21-135.16-59.12a163,163,0,0,1-33.2-65.69c-6.56-26.08-7.29-54-2.19-82.91a239.54,239.54,0,0,1,11.76-42.67h120c76.74,0,153.7-29.49,216.7-83.05a359.2,359.2,0,0,0,77.9-92.42h38.07c55.17,0,103.17,21,135.16,59.12a162.92,162.92,0,0,1,33.21,65.69C958.75,511.27,959.49,539.16,954.39,568.1Z"/><path class="cls-1" d="M554.41,563.82c-17.25,0-33.71,14-36.75,31.24s8.48,31.23,25.73,31.23,33.7-14,36.74-31.23S571.66,563.82,554.41,563.82Z"/><path class="cls-1" d="M672.15,560.35c-17.25,0-33.71,14-36.75,31.24s8.48,31.23,25.73,31.23,33.7-14,36.74-31.23S689.4,560.35,672.15,560.35Z"/><path class="cls-1" d="M788.66,563.82c-17.25,0-33.7,14-36.74,31.24s8.47,31.23,25.72,31.23,33.71-14,36.75-31.23S805.91,563.82,788.66,563.82Z"/><path class="cls-1" d="M736.91,242.93C760.58,108.77,671,0,536.82,0H328.6C194.43,0,66.49,108.77,42.84,242.93L0,485.85H451.16C585.32,485.85,713.26,377.1,736.91,242.93ZM72.38,248.14a247.75,247.75,0,0,1,32-84.35A281.38,281.38,0,0,1,163.71,94a276.78,276.78,0,0,1,77.95-47c28.67-11.29,57.92-17,86.94-17H536.82C592,30,640,51,672,89.12a163.05,163.05,0,0,1,33.21,65.69c6.55,26.08,7.28,54,2.18,82.91a247.83,247.83,0,0,1-32,84.35A281.56,281.56,0,0,1,616,391.85a276.87,276.87,0,0,1-77.95,47c-28.67,11.28-57.92,17-86.93,17H35.75Z"/><path class="cls-1" d="M368.54,299.59c-12.68,0-25.37,10.43-25.37,25.09,0,11,8.18,20,20.58,20,12.69,0,25.37-10.42,25.37-25.08C389.12,308.61,381,299.59,368.54,299.59Z"/><path class="cls-1" d="M397.3,141.74c-25.93,0-43.69,10.42-55.25,20.86a91.89,91.89,0,0,0-16.92,20.85l34.11,18.32a48.83,48.83,0,0,1,9-9.58,41,41,0,0,1,25.94-9.58c16.63,0,25.37,10.14,25.37,19.44,0,26.79-63.42,27.35-63.42,70.48a43.85,43.85,0,0,0,.55,6.2l.57,2.54h36.36c5.64-31.57,71.89-29.31,71.89-84.85C465.52,168,441.27,141.74,397.3,141.74Z"/></g></g></svg>
