<?xml version="1.0" standalone="no"?>
<!DOCTYPE svg PUBLIC "-//W3C//DTD SVG 20010904//EN"
 "http://www.w3.org/TR/2001/REC-SVG-20010904/DTD/svg10.dtd">
<svg version="1.0" xmlns="http://www.w3.org/2000/svg"
 width="1001.000000pt" height="827.000000pt" viewBox="0 0 1001.000000 827.000000"
 preserveAspectRatio="xMidYMid meet">
<metadata>
Created by potrace 1.16, written by Peter Selinger 2001-2019
</metadata>
<g transform="translate(0.000000,827.000000) scale(0.100000,-0.100000)"
fill="#000000" stroke="none">
<path d="M3095 8209 c-689 -72 -1343 -400 -1845 -926 -366 -384 -637 -880
-744 -1363 -32 -146 -426 -2386 -426 -2423 0 -42 25 -83 61 -97 25 -11 443
-12 2298 -7 1382 5 2303 11 2361 17 420 44 812 179 1209 414 387 231 786 628
1026 1021 37 61 73 117 80 125 7 8 31 51 53 95 191 385 285 764 285 1165 1
347 -62 627 -208 925 -180 368 -446 640 -805 824 -171 87 -289 133 -437 170
-269 68 -199 65 -1578 67 -687 1 -1286 -2 -1330 -7z m2615 -222 c150 -25 326
-71 433 -113 470 -184 829 -554 990 -1019 124 -358 139 -696 51 -1095 -48
-213 -173 -547 -243 -645 -15 -22 -54 -83 -86 -135 -227 -375 -620 -763 -1004
-990 -349 -206 -717 -328 -1121 -370 -57 -6 -957 -12 -2252 -16 -1858 -6
-2158 -5 -2158 7 0 33 383 2184 407 2284 141 596 522 1157 1058 1562 406 306
871 489 1380 542 44 5 611 8 1260 7 1073 -2 1189 -3 1285 -19z"/>
<path d="M3815 6895 c-229 -43 -446 -184 -574 -374 -61 -90 -71 -119 -71 -214
0 -69 4 -92 26 -135 32 -64 54 -81 214 -168 69 -37 127 -68 129 -70 2 -2 -6
-16 -18 -33 -12 -16 -38 -65 -58 -108 -37 -76 -38 -81 -41 -216 -4 -138 -4
-139 -38 -189 -55 -81 -77 -170 -72 -292 3 -95 6 -109 41 -178 45 -91 93 -138
193 -185 l73 -35 133 4 c127 3 137 5 199 35 119 59 197 147 239 268 15 44 20
83 19 159 0 56 -4 110 -8 120 -5 14 2 38 23 78 29 58 33 61 185 151 324 191
441 372 441 676 0 142 -17 218 -72 325 -58 113 -182 236 -293 293 -94 48 -185
78 -275 93 -89 14 -310 11 -395 -5z m327 -206 c157 -24 266 -78 360 -177 70
-73 103 -131 122 -212 21 -87 20 -142 -4 -236 -38 -149 -124 -240 -362 -381
-168 -100 -188 -117 -216 -183 -11 -26 -30 -51 -46 -60 -32 -17 -56 -58 -56
-95 0 -14 12 -48 26 -75 34 -66 40 -116 20 -177 -35 -106 -139 -183 -245 -183
-201 0 -288 226 -147 379 71 76 80 109 51 191 -42 120 16 275 141 373 29 23
113 76 186 118 172 99 206 146 163 229 -22 43 -63 60 -142 60 -85 0 -148 -28
-227 -99 -31 -28 -62 -51 -70 -51 -16 0 -159 73 -248 127 -76 46 -82 67 -34
138 157 237 440 359 728 314z"/>
<path d="M7201 4867 c-13 -6 -67 -77 -121 -157 -166 -247 -330 -438 -535 -623
-464 -418 -992 -674 -1587 -769 -126 -20 -175 -22 -883 -25 -522 -3 -759 -7
-778 -15 -54 -21 -198 -346 -261 -590 -97 -369 -117 -705 -60 -1031 91 -529
391 -996 819 -1277 181 -118 456 -233 665 -279 248 -53 148 -51 2651 -51 2536
0 2363 -4 2387 57 11 27 418 2329 443 2503 18 127 16 442 -4 580 -37 250 -93
424 -213 660 -180 353 -441 611 -804 793 -281 142 -532 208 -860 227 -234 14
-829 12 -859 -3z m789 -207 c312 -18 572 -84 815 -205 374 -187 672 -520 819
-917 99 -267 141 -604 106 -858 -6 -47 -103 -608 -216 -1247 -112 -639 -204
-1164 -204 -1167 0 -3 -1001 -6 -2224 -6 -2400 0 -2309 -2 -2556 51 -680 147
-1190 659 -1328 1334 -69 332 -57 586 44 973 33 130 102 319 150 414 l24 47
737 4 c694 3 746 5 871 25 879 141 1704 676 2210 1435 l85 127 251 0 c138 0
325 -5 416 -10z"/>
<path d="M6531 3034 c-135 -36 -298 -159 -370 -278 -77 -129 -110 -305 -82
-451 32 -170 161 -318 326 -375 47 -16 84 -20 194 -20 118 0 145 4 204 25 164
57 287 165 361 316 25 52 51 118 56 148 15 80 12 219 -5 286 -44 167 -174 299
-344 349 -70 20 -264 21 -340 0z m271 -210 c76 -22 147 -84 185 -162 36 -73
37 -177 4 -262 -44 -115 -168 -231 -284 -265 -67 -20 -161 -19 -223 2 -71 24
-165 120 -184 188 -40 141 5 283 126 395 64 60 109 86 175 104 72 20 131 19
201 0z"/>
<path d="M5313 2990 c-190 -67 -340 -214 -403 -392 -34 -96 -40 -283 -12 -375
36 -118 103 -207 206 -274 88 -58 167 -79 295 -79 129 0 195 16 305 72 120 62
209 154 272 282 l49 99 0 171 0 171 -32 68 c-55 116 -166 215 -288 257 -81 28
-314 28 -392 0z m313 -207 c34 -11 67 -34 110 -77 73 -74 89 -118 82 -235 -6
-103 -40 -175 -122 -257 -173 -173 -414 -175 -543 -6 -112 148 -62 368 114
507 32 25 83 54 113 64 70 25 180 27 246 4z"/>
<path d="M7673 2986 c-163 -61 -284 -168 -357 -317 -25 -52 -51 -118 -56 -148
-13 -69 -13 -194 0 -261 34 -181 195 -343 377 -381 87 -17 273 -7 351 21 76
27 193 102 249 161 109 115 162 239 170 399 7 128 -6 195 -55 293 -47 94 -119
164 -219 214 l-77 38 -160 2 c-148 2 -166 1 -223 -21z m318 -197 c136 -46 225
-199 200 -342 -29 -167 -164 -310 -331 -353 -156 -40 -309 32 -373 175 -28 63
-28 176 2 251 42 111 159 224 271 263 54 18 183 22 231 6z"/>
</g>
</svg>
